<svg width="500" height="370" viewBox="0 0 500 370" fill="none" xmlns="http://www.w3.org/2000/svg">
<path d="M449.901 344.494H416.779V344.744H449.901V344.494Z" fill="#EBEBEB"/>
<path d="M331.22 347.208H322.527V347.458H331.22V347.208Z" fill="#EBEBEB"/>
<path d="M415.778 335.208H396.586V335.458H415.778V335.208Z" fill="#EBEBEB"/>
<path d="M95.652 336.888H52.459V337.138H95.652V336.888Z" fill="#EBEBEB"/>
<path d="M110.889 336.888H104.556V337.138H110.889V336.888Z" fill="#EBEBEB"/>
<path d="M225.147 341.111H131.471V341.361H225.147V341.111Z" fill="#EBEBEB"/>
<path d="M237.014 283.8H43.915C40.768 283.8 38.207 281.239 38.207 278.092V6.66015C38.207 3.51315 40.768 0.952148 43.915 0.952148H237.014C240.16 0.952148 242.721 3.51315 242.721 6.66015V278.092C242.721 281.239 240.16 283.8 237.014 283.8ZM43.915 1.20315C40.905 1.20315 38.457 3.65115 38.457 6.66115V278.093C38.457 281.103 40.905 283.551 43.915 283.551H237.014C240.023 283.551 242.471 281.103 242.471 278.093V6.66015C242.471 3.65115 240.023 1.20215 237.014 1.20215L43.915 1.20315Z" fill="#EBEBEB"/>
<path d="M453.31 283.8H260.212C257.065 283.8 254.505 281.239 254.505 278.092V6.66015C254.505 3.51315 257.066 0.952148 260.212 0.952148H453.31C456.458 0.952148 459.018 3.51315 459.018 6.66015V278.092C459.019 281.239 456.458 283.8 453.31 283.8ZM260.212 1.20315C257.203 1.20315 254.755 3.65115 254.755 6.66115V278.093C254.755 281.103 257.203 283.551 260.212 283.551H453.31C456.32 283.551 458.768 281.103 458.768 278.093V6.66015C458.768 3.65115 456.32 1.20215 453.31 1.20215L260.212 1.20315Z" fill="#EBEBEB"/>
<path d="M500 328.398H0V328.648H500V328.398Z" fill="#EBEBEB"/>
<path d="M79.9723 69.6162H78.3213V198.328H79.9723V69.6162Z" fill="#E0E0E0"/>
<path d="M182.718 69.6162H181.067V198.328H182.718V69.6162Z" fill="#E0E0E0"/>
<path d="M189.183 77.7081H71.8559L69.3799 71.9312H191.658L189.183 77.7081Z" fill="#EBEBEB"/>
<path d="M189.183 85.6393H71.8559L69.3799 79.8623H191.658L189.183 85.6393Z" fill="#EBEBEB"/>
<path d="M189.183 93.5704H71.8559L69.3799 87.7944H191.658L189.183 93.5704Z" fill="#EBEBEB"/>
<path d="M189.183 101.502H71.8559L69.3799 95.7251H191.658L189.183 101.502Z" fill="#EBEBEB"/>
<path d="M189.183 109.433H71.8559L69.3799 103.656H191.658L189.183 109.433Z" fill="#EBEBEB"/>
<path d="M189.183 117.364H71.8559L69.3799 111.587H191.658L189.183 117.364Z" fill="#EBEBEB"/>
<path d="M189.183 125.297H71.8559L69.3799 119.52H191.658L189.183 125.297Z" fill="#EBEBEB"/>
<path d="M189.183 133.227H71.8559L69.3799 127.45H191.658L189.183 133.227Z" fill="#EBEBEB"/>
<path d="M189.183 141.158H71.8559L69.3799 135.381H191.658L189.183 141.158Z" fill="#EBEBEB"/>
<path d="M189.183 149.09H71.8559L69.3799 143.312H191.658L189.183 149.09Z" fill="#EBEBEB"/>
<path d="M189.183 157.02H71.8559L69.3799 151.243H191.658L189.183 157.02Z" fill="#EBEBEB"/>
<path d="M189.183 164.952H71.8559L69.3799 159.175H191.658L189.183 164.952Z" fill="#EBEBEB"/>
<path d="M189.183 172.883H71.8559L69.3799 167.106H191.658L189.183 172.883Z" fill="#EBEBEB"/>
<path d="M189.183 180.814H71.8559L69.3799 175.037H191.658L189.183 180.814Z" fill="#EBEBEB"/>
<path d="M189.183 188.745H71.8559L69.3799 182.969H191.658L189.183 188.745Z" fill="#EBEBEB"/>
<path d="M189.183 196.677H71.8559L69.3799 190.9H191.658L189.183 196.677Z" fill="#EBEBEB"/>
<path d="M191.658 196.677H69.3799V199.978H191.658V196.677Z" fill="#E0E0E0"/>
<path d="M195.922 64.6963H65.1162V72.3993H195.922V64.6963Z" fill="#E0E0E0"/>
<path d="M66.4589 142.235C65.7239 142.235 65.1279 141.639 65.1279 140.904V95.9785C65.1279 95.2435 65.7239 94.6475 66.4589 94.6475C67.1939 94.6475 67.7899 95.2435 67.7899 95.9785V140.904C67.7899 141.639 67.1939 142.235 66.4589 142.235Z" fill="#E0E0E0"/>
<path d="M66.9415 70.8545H65.9785V97.5365H66.9415V70.8545Z" fill="#E0E0E0"/>
<path d="M321.189 69.6162H319.538V198.328H321.189V69.6162Z" fill="#E0E0E0"/>
<path d="M423.936 69.6162H422.285V198.328H423.936V69.6162Z" fill="#E0E0E0"/>
<path d="M430.4 77.7081H313.073L310.598 71.9312H432.876L430.4 77.7081Z" fill="#EBEBEB"/>
<path d="M430.4 85.6393H313.073L310.598 79.8623H432.876L430.4 85.6393Z" fill="#EBEBEB"/>
<path d="M430.4 93.5704H313.073L310.598 87.7944H432.876L430.4 93.5704Z" fill="#EBEBEB"/>
<path d="M430.4 101.502H313.073L310.598 95.7251H432.876L430.4 101.502Z" fill="#EBEBEB"/>
<path d="M430.4 109.433H313.073L310.598 103.656H432.876L430.4 109.433Z" fill="#EBEBEB"/>
<path d="M430.4 117.364H313.073L310.598 111.587H432.876L430.4 117.364Z" fill="#EBEBEB"/>
<path d="M430.4 125.297H313.073L310.598 119.52H432.876L430.4 125.297Z" fill="#EBEBEB"/>
<path d="M430.4 133.227H313.073L310.598 127.45H432.876L430.4 133.227Z" fill="#EBEBEB"/>
<path d="M430.4 141.158H313.073L310.598 135.381H432.876L430.4 141.158Z" fill="#EBEBEB"/>
<path d="M430.4 149.09H313.073L310.598 143.312H432.876L430.4 149.09Z" fill="#EBEBEB"/>
<path d="M430.4 157.02H313.073L310.598 151.243H432.876L430.4 157.02Z" fill="#EBEBEB"/>
<path d="M430.4 164.952H313.073L310.598 159.175H432.876L430.4 164.952Z" fill="#EBEBEB"/>
<path d="M430.4 172.883H313.073L310.598 167.106H432.876L430.4 172.883Z" fill="#EBEBEB"/>
<path d="M430.4 180.814H313.073L310.598 175.037H432.876L430.4 180.814Z" fill="#EBEBEB"/>
<path d="M430.4 188.745H313.073L310.598 182.969H432.876L430.4 188.745Z" fill="#EBEBEB"/>
<path d="M430.4 196.677H313.073L310.598 190.9H432.876L430.4 196.677Z" fill="#EBEBEB"/>
<path d="M432.876 196.677H310.598V199.978H432.876V196.677Z" fill="#E0E0E0"/>
<path d="M437.14 64.6963H306.334V72.3993H437.14V64.6963Z" fill="#E0E0E0"/>
<path d="M307.677 142.235C306.942 142.235 306.346 141.639 306.346 140.904V95.9785C306.346 95.2435 306.942 94.6475 307.677 94.6475C308.412 94.6475 309.008 95.2435 309.008 95.9785V140.904C309.008 141.639 308.412 142.235 307.677 142.235Z" fill="#E0E0E0"/>
<path d="M308.158 70.8545H307.195V97.5365H308.158V70.8545Z" fill="#E0E0E0"/>
<path d="M389.662 51.1152H110.338V209.113H389.662V51.1152Z" fill="#E0E0E0"/>
<path d="M391.111 212.965H108.889C107.984 212.965 107.25 212.231 107.25 211.326V208.001C107.25 207.096 107.984 206.362 108.889 206.362H391.111C392.016 206.362 392.75 207.096 392.75 208.001V211.326C392.75 212.231 392.016 212.965 391.111 212.965Z" fill="#EBEBEB"/>
<path d="M383.246 55.915H116.753V207.865H383.246V55.915Z" fill="#FAFAFA"/>
<path d="M264.672 236.133C260.281 231.301 255.89 226.469 251.5 221.636C251.5 218.746 251.5 215.855 251.5 212.965C251.5 210.841 248.5 210.837 248.5 212.965C248.5 215.855 248.5 218.746 248.5 221.636C244.109 226.468 239.718 231.3 235.327 236.133C233.96 237.637 236.081 239.973 237.448 238.468C241.132 234.414 244.815 230.36 248.499 226.306C248.499 229.93 248.499 233.554 248.499 237.178C248.499 239.302 251.499 239.306 251.499 237.178C251.499 233.554 251.499 229.93 251.499 226.306C255.183 230.36 258.866 234.414 262.55 238.468C263.918 239.971 266.04 237.638 264.672 236.133Z" fill="#E6E6E6"/>
<path d="M395.995 58.3673H104.006C101.72 58.3673 99.8662 56.5133 99.8662 54.2273V48.0033C99.8662 45.7173 101.72 43.8633 104.006 43.8633H395.995C398.281 43.8633 400.135 45.7173 400.135 48.0033V54.2273C400.135 56.5133 398.281 58.3673 395.995 58.3673Z" fill="#F0F0F0"/>
<path d="M186.85 239.458H68.7949V280.208H186.85V239.458Z" fill="#EBEBEB"/>
<path d="M186.85 280.208H68.7949V320.958H186.85V280.208Z" fill="#EBEBEB"/>
<path d="M113.658 280.208L128.346 239.458H105.74L91.0508 280.208H113.658Z" fill="#F0F0F0"/>
<path d="M139.287 239.458H134.321L119.633 280.208H124.598L139.287 239.458Z" fill="#F0F0F0"/>
<path d="M98.9683 320.959L113.657 280.208H91.0513L76.3623 320.959H98.9683Z" fill="#F0F0F0"/>
<path d="M124.597 280.208H119.632L104.943 320.959H109.909L124.597 280.208Z" fill="#F0F0F0"/>
<path d="M186.851 245.724V241.601L68.7956 241.601V245.724L186.851 245.724Z" fill="#E0E0E0"/>
<path d="M186.851 286.157V282.034H68.7956V286.157H186.851Z" fill="#E0E0E0"/>
<path d="M130.843 265.048C131.821 265.048 132.614 264.255 132.614 263.277C132.614 262.299 131.821 261.506 130.843 261.506C130.347 261.506 125.299 261.506 124.803 261.506C123.825 261.506 123.032 262.299 123.032 263.277C123.032 264.255 123.825 265.048 124.803 265.048C125.338 265.048 130.307 265.048 130.843 265.048Z" fill="#E0E0E0"/>
<path d="M130.843 264.424C131.821 264.424 132.614 263.631 132.614 262.653C132.614 261.675 131.821 260.882 130.843 260.882C130.347 260.882 125.299 260.882 124.803 260.882C123.825 260.882 123.032 261.675 123.032 262.653C123.032 263.631 123.825 264.424 124.803 264.424C125.338 264.424 130.307 264.424 130.843 264.424Z" fill="#F5F5F5"/>
<path d="M130.843 302.666C131.821 302.666 132.614 301.873 132.614 300.895C132.614 299.917 131.821 299.124 130.843 299.124C130.347 299.124 125.299 299.124 124.803 299.124C123.825 299.124 123.032 299.917 123.032 300.895C123.032 301.873 123.825 302.666 124.803 302.666C125.338 302.666 130.307 302.666 130.843 302.666Z" fill="#E0E0E0"/>
<path d="M130.843 302.042C131.821 302.042 132.614 301.249 132.614 300.271C132.614 299.293 131.821 298.5 130.843 298.5C130.347 298.5 125.299 298.5 124.803 298.5C123.825 298.5 123.032 299.293 123.032 300.271C123.032 301.249 123.825 302.042 124.803 302.042C125.338 302.042 130.307 302.042 130.843 302.042Z" fill="#F5F5F5"/>
<path d="M66.7344 237.63V322.738H68.7954H70.8574H184.789H186.85H188.911V237.63H66.7344ZM184.789 318.615H70.8574V282.361H184.789V318.615ZM184.789 278.239H70.8574V241.985H184.789V278.239Z" fill="#F5F5F5"/>
<path d="M309.028 239.458H190.973V280.208H309.028V239.458Z" fill="#EBEBEB"/>
<path d="M309.028 280.208H190.973V320.958H309.028V280.208Z" fill="#EBEBEB"/>
<path d="M282.504 280.208L297.193 239.458H274.587L259.898 280.208H282.504Z" fill="#F0F0F0"/>
<path d="M308.134 239.458H303.168L288.479 280.208H293.445L308.134 239.458Z" fill="#F0F0F0"/>
<path d="M267.816 320.959L282.504 280.208H259.898L245.21 320.959H267.816Z" fill="#F0F0F0"/>
<path d="M293.445 280.208H288.479L273.791 320.959H278.757L293.445 280.208Z" fill="#F0F0F0"/>
<path d="M309.028 245.725V241.602L190.973 241.602V245.725L309.028 245.725Z" fill="#E0E0E0"/>
<path d="M309.028 286.157V282.034H190.973V286.157H309.028Z" fill="#E0E0E0"/>
<path d="M253.02 265.048C253.998 265.048 254.791 264.255 254.791 263.277C254.791 262.299 253.998 261.506 253.02 261.506C252.524 261.506 247.476 261.506 246.98 261.506C246.002 261.506 245.209 262.299 245.209 263.277C245.209 264.255 246.002 265.048 246.98 265.048C247.516 265.048 252.485 265.048 253.02 265.048Z" fill="#E0E0E0"/>
<path d="M253.02 264.424C253.998 264.424 254.791 263.631 254.791 262.653C254.791 261.675 253.998 260.882 253.02 260.882C252.524 260.882 247.476 260.882 246.98 260.882C246.002 260.882 245.209 261.675 245.209 262.653C245.209 263.631 246.002 264.424 246.98 264.424C247.516 264.424 252.485 264.424 253.02 264.424Z" fill="#F5F5F5"/>
<path d="M253.02 302.666C253.998 302.666 254.791 301.873 254.791 300.895C254.791 299.917 253.998 299.124 253.02 299.124C252.524 299.124 247.476 299.124 246.98 299.124C246.002 299.124 245.209 299.917 245.209 300.895C245.209 301.873 246.002 302.666 246.98 302.666C247.516 302.666 252.485 302.666 253.02 302.666Z" fill="#E0E0E0"/>
<path d="M253.02 302.042C253.998 302.042 254.791 301.249 254.791 300.271C254.791 299.293 253.998 298.5 253.02 298.5C252.524 298.5 247.476 298.5 246.98 298.5C246.002 298.5 245.209 299.293 245.209 300.271C245.209 301.249 246.002 302.042 246.98 302.042C247.516 302.042 252.485 302.042 253.02 302.042Z" fill="#F5F5F5"/>
<path d="M188.912 237.63V322.738H190.973H193.034H306.966H309.027H311.088V237.63H188.912ZM306.967 318.615H193.035V282.361H306.967V318.615ZM306.967 278.239H193.035V241.985H306.967V278.239Z" fill="#F5F5F5"/>
<path d="M431.204 239.458H313.149V280.208H431.204V239.458Z" fill="#EBEBEB"/>
<path d="M431.204 280.208H313.149V320.958H431.204V280.208Z" fill="#EBEBEB"/>
<path d="M387.908 280.208L402.596 239.458H379.99L365.302 280.208H387.908Z" fill="#F0F0F0"/>
<path d="M413.537 239.458H408.571L393.883 280.208H398.848L413.537 239.458Z" fill="#F0F0F0"/>
<path d="M373.22 320.959L387.908 280.208H365.302L350.613 320.959H373.22Z" fill="#F0F0F0"/>
<path d="M398.849 280.208H393.883L379.194 320.959H384.16L398.849 280.208Z" fill="#F0F0F0"/>
<path d="M431.205 245.725V241.602L313.15 241.602V245.725L431.205 245.725Z" fill="#E0E0E0"/>
<path d="M431.205 286.157V282.034H313.15V286.157H431.205Z" fill="#E0E0E0"/>
<path d="M375.197 265.048C376.175 265.048 376.968 264.255 376.968 263.277C376.968 262.299 376.175 261.506 375.197 261.506C374.701 261.506 369.653 261.506 369.157 261.506C368.179 261.506 367.386 262.299 367.386 263.277C367.386 264.255 368.179 265.048 369.157 265.048C369.693 265.048 374.662 265.048 375.197 265.048Z" fill="#E0E0E0"/>
<path d="M375.197 264.424C376.175 264.424 376.968 263.631 376.968 262.653C376.968 261.675 376.175 260.882 375.197 260.882C374.701 260.882 369.653 260.882 369.157 260.882C368.179 260.882 367.386 261.675 367.386 262.653C367.386 263.631 368.179 264.424 369.157 264.424C369.693 264.424 374.662 264.424 375.197 264.424Z" fill="#F5F5F5"/>
<path d="M375.197 302.666C376.175 302.666 376.968 301.873 376.968 300.895C376.968 299.917 376.175 299.124 375.197 299.124C374.701 299.124 369.653 299.124 369.157 299.124C368.179 299.124 367.386 299.917 367.386 300.895C367.386 301.873 368.179 302.666 369.157 302.666C369.693 302.666 374.662 302.666 375.197 302.666Z" fill="#E0E0E0"/>
<path d="M375.197 302.042C376.175 302.042 376.968 301.249 376.968 300.271C376.968 299.293 376.175 298.5 375.197 298.5C374.701 298.5 369.653 298.5 369.157 298.5C368.179 298.5 367.386 299.293 367.386 300.271C367.386 301.249 368.179 302.042 369.157 302.042C369.693 302.042 374.662 302.042 375.197 302.042Z" fill="#F5F5F5"/>
<path d="M311.088 237.63V322.738H313.149H315.21H429.142H431.203H433.264V237.63H311.088ZM429.143 318.615H315.211V282.361H429.143V318.615ZM429.143 278.239H315.211V241.985H429.143V278.239Z" fill="#F5F5F5"/>
<path d="M421.455 328.87H78.5467L76.7617 322.738H423.24L421.455 328.87Z" fill="#E0E0E0"/>
<path d="M250 369.714C357.082 369.714 443.889 364.644 443.889 358.391C443.889 352.137 357.082 347.068 250 347.068C142.918 347.068 56.1113 352.137 56.1113 358.391C56.1113 364.644 142.918 369.714 250 369.714Z" fill="#F5F5F5"/>
<path d="M132.744 186.005H354.724C360.776 186.005 365.252 181.099 364.723 175.048L352.792 38.6801C352.262 32.6281 346.928 27.7231 340.876 27.7231H118.896C112.845 27.7231 108.368 32.6291 108.897 38.6801L120.828 175.048C121.357 181.1 126.692 186.005 132.744 186.005Z" fill="#263238"/>
<path opacity="0.7" d="M132.744 186.005H354.724C360.776 186.005 365.252 181.099 364.723 175.048L352.792 38.6801C352.262 32.6281 346.928 27.7231 340.876 27.7231H118.896C112.845 27.7231 108.368 32.6291 108.897 38.6801L120.828 175.048C121.357 181.1 126.692 186.005 132.744 186.005Z" fill="white"/>
<path d="M132.981 172.049H349.448L337.442 34.8252H120.975L132.981 172.049Z" fill="#EA8324"/>
<path d="M135.959 182.79H357.939C363.991 182.79 368.467 177.884 367.938 171.833L356.007 35.4653C355.478 29.4133 350.143 24.5083 344.091 24.5083H122.111C116.06 24.5083 111.583 29.4143 112.112 35.4653L124.043 171.833C124.572 177.884 129.908 182.79 135.959 182.79Z" fill="#EA8324"/>
<path d="M132.981 172.049H349.448L337.442 34.8252H120.975L132.981 172.049Z" fill="#EA8324"/>
<path opacity="0.4" d="M132.981 172.26H349.448L337.442 35.0371H120.975L132.981 172.26Z" fill="white"/>
<path d="M338.524 47.3991H122.057L120.975 35.0371H337.442L338.524 47.3991Z" fill="#EA8324"/>
<path opacity="0.5" d="M338.524 47.3991H122.057L120.975 35.0371H337.442L338.524 47.3991Z" fill="black"/>
<path d="M130.118 40.1233L130.215 41.2343H132.158L132.226 42.0143H130.283L130.417 43.5453H129.445L129.077 39.3423H132.249L132.317 40.1233H130.118Z" fill="white"/>
<path d="M132.79 41.443C132.681 40.194 133.571 39.269 134.897 39.269C136.216 39.269 137.274 40.188 137.384 41.443C137.494 42.698 136.597 43.616 135.277 43.616C133.952 43.617 132.899 42.692 132.79 41.443ZM136.4 41.443C136.33 40.644 135.719 40.098 134.969 40.098C134.219 40.098 133.703 40.644 133.773 41.443C133.843 42.241 134.455 42.788 135.204 42.788C135.954 42.789 136.47 42.242 136.4 41.443Z" fill="white"/>
<path d="M140.977 43.5453L140.065 42.3743H140.017H139.171L139.273 43.5453H138.301L137.933 39.3423H139.75C140.871 39.3423 141.624 39.9253 141.707 40.8673C141.762 41.4973 141.484 41.9593 140.959 42.1943L142.019 43.5453H140.977ZM139.767 40.1343H138.975L139.103 41.5993H139.895C140.489 41.5993 140.764 41.3233 140.725 40.8673C140.685 40.4043 140.361 40.1343 139.767 40.1343Z" fill="white"/>
<path d="M146.531 43.5453L146.304 41.0233L145.251 43.1013H144.813L143.406 41.0783L143.622 43.5463H142.71L142.342 39.3433H143.146L144.946 41.9553L146.264 39.3433H147.062L147.441 43.5463L146.531 43.5453Z" fill="white"/>
<path d="M136.24 57.1954L136.321 58.1204H137.943L138 58.7704H136.379L136.49 60.0454H135.679L135.373 56.5444H138.021L138.078 57.1944L136.24 57.1954Z" fill="#EA8324"/>
<path d="M138.368 56.5453C138.347 56.3003 138.525 56.1104 138.815 56.1104C139.106 56.1104 139.317 56.2903 139.338 56.5303C139.361 56.7903 139.182 56.9814 138.892 56.9814C138.601 56.9804 138.389 56.7903 138.368 56.5453ZM138.534 57.3554H139.315L139.55 60.0453H138.769L138.534 57.3554Z" fill="#EA8324"/>
<path d="M141.707 57.3154L141.77 58.0354C141.705 58.0304 141.654 58.0254 141.594 58.0254C141.163 58.0254 140.899 58.2604 140.944 58.7754L141.055 60.0454H140.274L140.039 57.3554H140.785L140.816 57.7104C140.983 57.4504 141.292 57.3154 141.707 57.3154Z" fill="#EA8324"/>
<path d="M142.136 59.7954L142.347 59.2354C142.601 59.3904 142.975 59.4954 143.306 59.4954C143.666 59.4954 143.793 59.4004 143.78 59.2504C143.742 58.8104 142.154 59.2604 142.061 58.1854C142.016 57.6754 142.445 57.3154 143.231 57.3154C143.601 57.3154 144.019 57.4004 144.287 57.5504L144.075 58.1054C143.797 57.9554 143.528 57.9054 143.283 57.9054C142.932 57.9054 142.791 58.0154 142.804 58.1554C142.844 58.6154 144.432 58.1704 144.525 59.2304C144.569 59.7304 144.134 60.0854 143.328 60.0854C142.873 60.0854 142.401 59.9604 142.136 59.7954Z" fill="#EA8324"/>
<path d="M146.799 59.9163C146.649 60.0313 146.418 60.0853 146.178 60.0853C145.542 60.0853 145.144 59.7603 145.088 59.1203L144.991 58.0153H144.575L144.523 57.4153H144.939L144.881 56.7603H145.662L145.72 57.4153H146.39L146.442 58.0153H145.772L145.868 59.1103C145.888 59.3403 146.024 59.4652 146.234 59.4652C146.349 59.4652 146.462 59.4302 146.541 59.3652L146.799 59.9163Z" fill="#EA8324"/>
<path d="M151.625 56.5454L151.931 60.0464H151.265L149.332 57.9204L149.518 60.0464H148.717L148.411 56.5454H149.081L151.009 58.6714L150.823 56.5454H151.625Z" fill="#EA8324"/>
<path d="M154.951 58.5114L155.085 60.0464H154.354L154.325 59.7114C154.202 59.9564 153.932 60.0864 153.537 60.0864C152.906 60.0864 152.5 59.7364 152.459 59.2714C152.417 58.7964 152.724 58.4664 153.545 58.4664H154.166C154.137 58.1314 153.919 57.9364 153.499 57.9364C153.214 57.9364 152.927 58.0314 152.745 58.1864L152.417 57.6414C152.694 57.4314 153.12 57.3164 153.55 57.3164C154.371 57.3154 154.88 57.6954 154.951 58.5114ZM154.231 59.1954L154.207 58.9204H153.671C153.306 58.9204 153.202 59.0554 153.218 59.2354C153.235 59.4304 153.412 59.5604 153.687 59.5604C153.947 59.5614 154.162 59.4404 154.231 59.1954Z" fill="#EA8324"/>
<path d="M160.203 58.5054L160.338 60.0454H159.557L159.433 58.6254C159.395 58.1904 159.182 57.9904 158.868 57.9904C158.517 57.9904 158.292 58.2154 158.334 58.6954L158.452 60.0454H157.671L157.546 58.6254C157.508 58.1904 157.306 57.9904 156.98 57.9904C156.635 57.9904 156.409 58.2154 156.451 58.6954L156.569 60.0454H155.788L155.553 57.3554H156.299L156.326 57.6654C156.506 57.4354 156.796 57.3154 157.141 57.3154C157.516 57.3154 157.849 57.4614 158.065 57.7554C158.256 57.4814 158.592 57.3154 158.997 57.3154C159.638 57.3154 160.131 57.6854 160.203 58.5054Z" fill="#EA8324"/>
<path d="M163.588 58.9204H161.551C161.655 59.2554 161.959 59.4604 162.369 59.4604C162.654 59.4604 162.852 59.3754 163.022 59.2004L163.476 59.6514C163.251 59.9364 162.889 60.0864 162.403 60.0864C161.472 60.0864 160.815 59.5014 160.745 58.7014C160.675 57.8964 161.24 57.3164 162.06 57.3164C162.851 57.3164 163.508 57.8464 163.583 58.7124C163.589 58.7704 163.587 58.8554 163.588 58.9204ZM161.501 58.4654H162.827C162.742 58.1254 162.468 57.9054 162.118 57.9054C161.762 57.9054 161.526 58.1214 161.501 58.4654Z" fill="#EA8324"/>
<path d="M144.184 126.247L144.241 126.897H141.529L141.223 123.396H143.87L143.927 124.046H142.085L142.151 124.806H143.777L143.832 125.436H142.206L142.277 126.246L144.184 126.247Z" fill="#EA8324"/>
<path d="M149.243 125.357L149.378 126.898H148.597L148.473 125.478C148.435 125.043 148.223 124.843 147.908 124.843C147.557 124.843 147.332 125.068 147.374 125.548L147.492 126.899H146.711L146.586 125.479C146.548 125.044 146.346 124.844 146.021 124.844C145.675 124.844 145.45 125.069 145.492 125.549L145.61 126.9H144.829L144.594 124.209H145.34L145.367 124.519C145.547 124.289 145.837 124.168 146.182 124.168C146.557 124.168 146.891 124.313 147.106 124.608C147.297 124.333 147.633 124.168 148.039 124.168C148.678 124.167 149.171 124.537 149.243 125.357Z" fill="#EA8324"/>
<path d="M152.322 125.362L152.456 126.897H151.726L151.697 126.561C151.573 126.807 151.304 126.937 150.908 126.937C150.278 126.937 149.871 126.587 149.831 126.122C149.789 125.647 150.096 125.317 150.917 125.317H151.538C151.509 124.982 151.291 124.787 150.871 124.787C150.586 124.787 150.299 124.883 150.117 125.037L149.789 124.493C150.066 124.282 150.492 124.167 150.922 124.167C151.741 124.167 152.25 124.547 152.322 125.362ZM151.601 126.047L151.577 125.772H151.041C150.676 125.772 150.572 125.907 150.588 126.086C150.605 126.281 150.781 126.412 151.057 126.412C151.317 126.413 151.532 126.292 151.601 126.047Z" fill="#EA8324"/>
<path d="M152.757 123.396C152.736 123.151 152.914 122.961 153.204 122.961C153.494 122.961 153.705 123.141 153.727 123.38C153.75 123.64 153.571 123.831 153.281 123.831C152.99 123.832 152.779 123.642 152.757 123.396ZM152.923 124.207H153.704L153.939 126.898H153.158L152.923 124.207Z" fill="#EA8324"/>
<path d="M154.339 123.186H155.12L155.445 126.897H154.664L154.339 123.186Z" fill="#EA8324"/>
<path d="M139.694 79.5733H138.068L137.823 80.3233H136.992L138.247 76.8223H139.048L140.921 80.3233H140.07L139.694 79.5733ZM139.385 78.9583L138.713 77.6183L138.275 78.9583H139.385Z" fill="#EA8324"/>
<path d="M143.621 76.6123L143.945 80.3233H143.2L143.173 80.0133C142.998 80.2483 142.723 80.3633 142.363 80.3633C141.602 80.3633 140.969 79.8233 140.895 78.9783C140.821 78.1333 141.359 77.5933 142.12 77.5933C142.45 77.5933 142.74 77.6983 142.954 77.9193L142.84 76.6133H143.621V76.6123ZM143.062 78.9773C143.022 78.5123 142.697 78.2323 142.311 78.2323C141.92 78.2323 141.645 78.5123 141.685 78.9773C141.726 79.4433 142.051 79.7223 142.441 79.7223C142.827 79.7233 143.103 79.4433 143.062 78.9773Z" fill="#EA8324"/>
<path d="M147.081 76.6123L147.405 80.3233H146.66L146.633 80.0133C146.458 80.2483 146.183 80.3633 145.823 80.3633C145.062 80.3633 144.43 79.8233 144.355 78.9783C144.281 78.1333 144.819 77.5933 145.58 77.5933C145.91 77.5933 146.2 77.6983 146.414 77.9193L146.3 76.6133H147.081V76.6123ZM146.522 78.9773C146.481 78.5123 146.157 78.2323 145.771 78.2323C145.38 78.2323 145.104 78.5123 145.145 78.9773C145.186 79.4433 145.511 79.7223 145.901 79.7223C146.287 79.7233 146.563 79.4433 146.522 78.9773Z" fill="#EA8324"/>
<path d="M149.555 77.5923L149.618 78.3123C149.553 78.3073 149.502 78.3023 149.442 78.3023C149.011 78.3023 148.747 78.5383 148.792 79.0533L148.903 80.3233H148.123L147.887 77.6333H148.633L148.664 77.9883C148.831 77.7273 149.14 77.5923 149.555 77.5923Z" fill="#EA8324"/>
<path d="M152.757 79.1982H150.72C150.825 79.5332 151.128 79.7383 151.538 79.7383C151.823 79.7383 152.02 79.6532 152.191 79.4782L152.646 79.9292C152.421 80.2142 152.059 80.3642 151.573 80.3642C150.642 80.3642 149.985 79.7792 149.915 78.9792C149.845 78.1742 150.41 77.5942 151.23 77.5942C152.02 77.5942 152.678 78.1242 152.753 78.9892C152.759 79.0482 152.756 79.1332 152.757 79.1982ZM150.67 78.7432H151.996C151.911 78.4032 151.637 78.1832 151.286 78.1832C150.931 78.1832 150.695 78.3982 150.67 78.7432Z" fill="#EA8324"/>
<path d="M153.105 80.0733L153.316 79.5123C153.57 79.6673 153.944 79.7723 154.275 79.7723C154.635 79.7723 154.762 79.6773 154.749 79.5273C154.71 79.0873 153.124 79.5373 153.029 78.4623C152.985 77.9523 153.413 77.5923 154.199 77.5923C154.569 77.5923 154.987 77.6773 155.255 77.8273L155.044 78.3823C154.766 78.2323 154.496 78.1823 154.251 78.1823C153.9 78.1823 153.76 78.2923 153.772 78.4323C153.812 78.8923 155.4 78.4473 155.493 79.5073C155.537 80.0073 155.102 80.3623 154.297 80.3623C153.841 80.3633 153.369 80.2383 153.105 80.0733Z" fill="#EA8324"/>
<path d="M155.76 80.0733L155.971 79.5123C156.225 79.6673 156.599 79.7723 156.93 79.7723C157.29 79.7723 157.417 79.6773 157.404 79.5273C157.365 79.0873 155.778 79.5373 155.684 78.4623C155.64 77.9523 156.068 77.5923 156.854 77.5923C157.225 77.5923 157.643 77.6773 157.911 77.8273L157.7 78.3823C157.422 78.2323 157.152 78.1823 156.906 78.1823C156.556 78.1823 156.416 78.2923 156.428 78.4323C156.468 78.8923 158.056 78.4473 158.148 79.5073C158.192 80.0073 157.758 80.3623 156.952 80.3623C156.496 80.3633 156.025 80.2383 155.76 80.0733Z" fill="#EA8324"/>
<path d="M146.297 146.686C146.365 147.466 145.822 147.951 144.886 147.951H144.18L144.264 148.916H143.453L143.147 145.415H144.663C145.6 145.416 146.228 145.901 146.297 146.686ZM145.476 146.686C145.442 146.301 145.172 146.076 144.676 146.076H144.016L144.122 147.291H144.783C145.278 147.292 145.509 147.066 145.476 146.686Z" fill="#EA8324"/>
<path d="M149.232 147.381L149.366 148.916H148.636L148.606 148.581C148.482 148.826 148.214 148.956 147.819 148.956C147.188 148.956 146.782 148.606 146.741 148.141C146.699 147.666 147.006 147.336 147.826 147.336H148.447C148.418 147.001 148.2 146.806 147.78 146.806C147.495 146.806 147.208 146.901 147.026 147.056L146.698 146.511C146.975 146.301 147.401 146.186 147.831 146.186C148.651 146.186 149.16 146.566 149.232 147.381ZM148.511 148.066L148.487 147.791H147.951C147.586 147.791 147.482 147.926 147.498 148.106C147.515 148.301 147.692 148.431 147.967 148.431C148.228 148.432 148.443 148.311 148.511 148.066Z" fill="#EA8324"/>
<path d="M149.787 148.667L149.998 148.107C150.252 148.262 150.626 148.367 150.957 148.367C151.317 148.367 151.444 148.272 151.431 148.122C151.393 147.682 149.805 148.132 149.711 147.057C149.667 146.547 150.095 146.187 150.881 146.187C151.252 146.187 151.67 146.272 151.938 146.422L151.727 146.977C151.449 146.827 151.179 146.777 150.933 146.777C150.583 146.777 150.443 146.887 150.455 147.027C150.495 147.487 152.082 147.042 152.175 148.102C152.219 148.602 151.785 148.957 150.979 148.957C150.523 148.956 150.051 148.831 149.787 148.667Z" fill="#EA8324"/>
<path d="M152.442 148.667L152.653 148.107C152.907 148.262 153.281 148.367 153.612 148.367C153.972 148.367 154.099 148.272 154.086 148.122C154.048 147.682 152.46 148.132 152.366 147.057C152.322 146.547 152.75 146.187 153.536 146.187C153.906 146.187 154.324 146.272 154.592 146.422L154.38 146.977C154.102 146.827 153.832 146.777 153.587 146.777C153.236 146.777 153.096 146.887 153.108 147.027C153.148 147.487 154.736 147.042 154.829 148.102C154.873 148.602 154.438 148.957 153.633 148.957C153.178 148.956 152.706 148.831 152.442 148.667Z" fill="#EA8324"/>
<path d="M159.417 146.226L158.676 148.916H157.926L157.174 147.246L156.694 148.916H155.943L154.736 146.226H155.472L156.267 148.046L156.769 146.226H157.43L158.23 148.046L158.727 146.226H159.417Z" fill="#EA8324"/>
<path d="M159.621 147.571C159.55 146.761 160.125 146.186 160.981 146.186C161.837 146.186 162.508 146.761 162.579 147.571C162.65 148.382 162.08 148.956 161.224 148.956C160.368 148.956 159.692 148.382 159.621 147.571ZM161.788 147.571C161.747 147.106 161.428 146.826 161.037 146.826C160.646 146.826 160.371 147.106 160.411 147.571C160.452 148.036 160.776 148.316 161.167 148.316C161.558 148.316 161.829 148.036 161.788 147.571Z" fill="#EA8324"/>
<path d="M164.647 146.186L164.71 146.906C164.644 146.901 164.594 146.896 164.534 146.896C164.103 146.896 163.839 147.131 163.884 147.647L163.995 148.917H163.214L162.979 146.227H163.725L163.756 146.582C163.923 146.321 164.232 146.186 164.647 146.186Z" fill="#EA8324"/>
<path d="M167.743 145.206L168.067 148.917H167.322L167.295 148.607C167.12 148.842 166.845 148.957 166.485 148.957C165.724 148.957 165.091 148.417 165.017 147.572C164.943 146.727 165.482 146.187 166.243 146.187C166.573 146.187 166.863 146.292 167.077 146.512L166.963 145.206H167.743ZM167.184 147.571C167.143 147.106 166.819 146.826 166.433 146.826C166.043 146.826 165.767 147.106 165.807 147.571C165.848 148.036 166.173 148.316 166.563 148.316C166.949 148.316 167.225 148.036 167.184 147.571Z" fill="#EA8324"/>
<path d="M283.223 162.534H263.486C259.75 162.534 256.456 159.505 256.129 155.769C255.802 152.033 258.566 149.004 262.302 149.004H282.039C285.775 149.004 289.069 152.033 289.396 155.769C289.724 159.505 286.96 162.534 283.223 162.534Z" fill="#EA8324"/>
<path d="M266.449 157.225L266.671 156.615C266.985 156.83 267.439 156.98 267.859 156.98C268.339 156.98 268.521 156.82 268.502 156.605C268.445 155.95 266.447 156.4 266.333 155.1C266.281 154.505 266.718 154.01 267.714 154.01C268.154 154.01 268.614 154.115 268.958 154.32L268.761 154.935C268.42 154.75 268.076 154.66 267.766 154.66C267.286 154.66 267.117 154.84 267.136 155.06C267.193 155.705 269.19 155.26 269.303 156.545C269.354 157.13 268.913 157.63 267.912 157.63C267.356 157.63 266.78 157.465 266.449 157.225Z" fill="white"/>
<path d="M272.138 156.035L272.272 157.57H271.542L271.513 157.235C271.389 157.48 271.12 157.61 270.724 157.61C270.094 157.61 269.687 157.26 269.647 156.795C269.605 156.32 269.912 155.99 270.733 155.99H271.354C271.325 155.655 271.107 155.46 270.687 155.46C270.402 155.46 270.115 155.555 269.933 155.71L269.605 155.165C269.882 154.955 270.308 154.84 270.738 154.84C271.558 154.839 272.067 155.22 272.138 156.035ZM271.417 156.72L271.393 156.445H270.857C270.492 156.445 270.389 156.58 270.404 156.76C270.421 156.955 270.597 157.085 270.873 157.085C271.134 157.085 271.348 156.965 271.417 156.72Z" fill="white"/>
<path d="M275.362 154.88L274.462 157.57H273.656L272.289 154.88H273.095L274.001 156.71L274.612 154.88H275.362Z" fill="white"/>
<path d="M278.364 156.445H276.327C276.431 156.781 276.734 156.985 277.145 156.985C277.43 156.985 277.628 156.9 277.798 156.725L278.252 157.176C278.027 157.461 277.665 157.611 277.179 157.611C276.248 157.611 275.591 157.026 275.521 156.226C275.451 155.421 276.016 154.841 276.836 154.841C277.626 154.841 278.284 155.371 278.359 156.236C278.366 156.295 278.363 156.38 278.364 156.445ZM276.277 155.99H277.603C277.518 155.65 277.244 155.43 276.893 155.43C276.538 155.43 276.302 155.645 276.277 155.99Z" fill="white"/>
<path d="M320.768 162.534H301.031C297.295 162.534 294.001 159.505 293.674 155.769C293.347 152.033 296.111 149.004 299.847 149.004H319.584C323.32 149.004 326.614 152.033 326.941 155.769C327.268 159.505 324.504 162.534 320.768 162.534Z" fill="#EA8324"/>
<path d="M298.586 155.82C298.493 154.765 299.238 154.009 300.329 154.009C300.934 154.009 301.459 154.229 301.825 154.63L301.346 155.11C301.087 154.84 300.78 154.7 300.43 154.7C299.774 154.7 299.349 155.159 299.407 155.82C299.465 156.48 299.97 156.941 300.626 156.941C300.976 156.941 301.259 156.801 301.471 156.526L302.034 157.006C301.739 157.411 301.253 157.631 300.642 157.631C299.554 157.63 298.677 156.875 298.586 155.82Z" fill="white"/>
<path d="M302.155 156.225C302.084 155.415 302.659 154.84 303.515 154.84C304.371 154.84 305.042 155.415 305.113 156.225C305.184 157.036 304.614 157.61 303.758 157.61C302.902 157.61 302.226 157.035 302.155 156.225ZM304.323 156.225C304.282 155.76 303.963 155.48 303.572 155.48C303.181 155.48 302.906 155.76 302.947 156.225C302.987 156.69 303.312 156.97 303.702 156.97C304.092 156.97 304.363 156.69 304.323 156.225Z" fill="white"/>
<path d="M308.367 156.03L308.502 157.57H307.721L307.597 156.15C307.559 155.715 307.341 155.515 306.996 155.515C306.621 155.515 306.371 155.745 306.414 156.24L306.53 157.571H305.749L305.514 154.881H306.26L306.287 155.195C306.478 154.965 306.782 154.84 307.147 154.84C307.782 154.839 308.295 155.21 308.367 156.03Z" fill="white"/>
<path d="M310.929 157.44C310.779 157.555 310.548 157.609 310.308 157.609C309.672 157.609 309.274 157.284 309.218 156.644L309.121 155.539H308.706L308.654 154.939H309.069L309.011 154.284H309.792L309.85 154.939H310.52L310.572 155.539H309.901L309.997 156.634C310.018 156.864 310.153 156.989 310.363 156.989C310.478 156.989 310.59 156.954 310.67 156.889L310.929 157.44Z" fill="white"/>
<path d="M310.977 154.069C310.956 153.824 311.134 153.634 311.425 153.634C311.715 153.634 311.926 153.814 311.947 154.054C311.97 154.314 311.791 154.505 311.501 154.505C311.211 154.505 310.999 154.314 310.977 154.069ZM311.143 154.88H311.924L312.159 157.57H311.378L311.143 154.88Z" fill="white"/>
<path d="M315.501 156.03L315.636 157.57H314.855L314.731 156.15C314.693 155.715 314.475 155.515 314.13 155.515C313.755 155.515 313.505 155.745 313.548 156.24L313.664 157.571H312.883L312.648 154.881H313.394L313.421 155.195C313.611 154.965 313.916 154.84 314.281 154.84C314.916 154.839 315.429 155.21 315.501 156.03Z" fill="white"/>
<path d="M318.816 154.88L319.051 157.57H318.31L318.282 157.25C318.097 157.485 317.808 157.61 317.478 157.61C316.802 157.61 316.293 157.23 316.221 156.4L316.088 154.88H316.869L316.992 156.285C317.031 156.735 317.249 156.935 317.594 156.935C317.954 156.935 318.194 156.705 318.151 156.21L318.035 154.88H318.816Z" fill="white"/>
<path d="M322.298 156.445H320.261C320.365 156.781 320.668 156.985 321.079 156.985C321.364 156.985 321.562 156.9 321.732 156.725L322.186 157.176C321.961 157.461 321.599 157.611 321.113 157.611C320.182 157.611 319.525 157.026 319.455 156.226C319.385 155.421 319.95 154.841 320.77 154.841C321.56 154.841 322.218 155.371 322.293 156.236C322.299 156.295 322.297 156.38 322.298 156.445ZM320.211 155.99H321.537C321.452 155.65 321.178 155.43 320.827 155.43C320.471 155.43 320.236 155.645 320.211 155.99Z" fill="white"/>
<path d="M242.05 125.842C241.973 124.966 242.729 124.34 243.821 124.34C244.426 124.34 244.947 124.522 245.307 124.855L244.821 125.253C244.566 125.028 244.26 124.912 243.91 124.912C243.254 124.912 242.823 125.294 242.87 125.842C242.918 126.39 243.416 126.772 244.072 126.772C244.422 126.772 244.707 126.656 244.923 126.428L245.478 126.826C245.177 127.162 244.687 127.345 244.077 127.345C242.992 127.344 242.127 126.717 242.05 125.842Z" fill="#EA8324"/>
<path d="M245.614 126.178C245.555 125.506 246.139 125.029 246.995 125.029C247.851 125.029 248.513 125.507 248.572 126.178C248.631 126.85 248.052 127.327 247.196 127.327C246.341 127.327 245.673 126.85 245.614 126.178ZM247.781 126.178C247.747 125.793 247.432 125.56 247.041 125.56C246.65 125.56 246.371 125.793 246.405 126.178C246.439 126.564 246.759 126.797 247.15 126.797C247.541 126.796 247.815 126.564 247.781 126.178Z" fill="#EA8324"/>
<path d="M251.829 126.016L251.941 127.294H251.16L251.057 126.115C251.025 125.754 250.811 125.588 250.465 125.588C250.09 125.588 249.837 125.779 249.872 126.19L249.969 127.294H249.188L248.993 125.061H249.739L249.762 125.323C249.956 125.132 250.262 125.028 250.627 125.028C251.262 125.028 251.769 125.335 251.829 126.016Z" fill="#EA8324"/>
<path d="M254.37 127.186C254.218 127.281 253.987 127.327 253.746 127.327C253.11 127.327 252.717 127.058 252.67 126.527L252.59 125.61H252.174L252.131 125.112H252.546L252.499 124.568H253.279L253.327 125.112H253.997L254.04 125.61H253.37L253.45 126.519C253.467 126.709 253.601 126.813 253.811 126.813C253.926 126.813 254.039 126.784 254.119 126.73L254.37 127.186Z" fill="#EA8324"/>
<path d="M257.089 126.02L257.2 127.294H256.469L256.445 127.016C256.318 127.219 256.047 127.327 255.652 127.327C255.021 127.327 254.62 127.037 254.587 126.651C254.552 126.256 254.864 125.982 255.685 125.982H256.306C256.282 125.704 256.067 125.542 255.647 125.542C255.362 125.542 255.073 125.621 254.889 125.75L254.569 125.297C254.849 125.123 255.276 125.027 255.707 125.027C256.526 125.028 257.029 125.344 257.089 126.02ZM256.358 126.589L256.338 126.36H255.802C255.437 126.36 255.331 126.472 255.344 126.622C255.358 126.784 255.533 126.892 255.808 126.892C256.068 126.892 256.285 126.792 256.358 126.589Z" fill="#EA8324"/>
<path d="M257.634 126.178C257.575 125.506 258.159 125.029 259.035 125.029C259.601 125.029 260.064 125.233 260.291 125.598L259.709 125.868C259.545 125.657 259.322 125.561 259.077 125.561C258.682 125.561 258.391 125.79 258.425 126.179C258.459 126.569 258.79 126.798 259.185 126.798C259.43 126.798 259.637 126.707 259.764 126.491L260.393 126.765C260.229 127.122 259.802 127.329 259.236 127.329C258.361 127.327 257.693 126.85 257.634 126.178Z" fill="#EA8324"/>
<path d="M262.655 127.186C262.503 127.281 262.272 127.327 262.031 127.327C261.395 127.327 261.002 127.058 260.955 126.527L260.874 125.61H260.458L260.415 125.112H260.83L260.782 124.568H261.563L261.61 125.112H262.28L262.323 125.61H261.653L261.733 126.519C261.75 126.709 261.884 126.813 262.094 126.813C262.209 126.813 262.322 126.784 262.402 126.73L262.655 127.186Z" fill="#EA8324"/>
<path d="M267.531 124.39L267.785 127.295H267.12L265.219 125.531L265.373 127.295H264.572L264.318 124.39H264.989L266.885 126.154L266.73 124.39H267.531Z" fill="#EA8324"/>
<path d="M271.075 125.062L271.27 127.295H270.53L270.507 127.029C270.318 127.224 270.027 127.327 269.697 127.327C269.021 127.327 268.518 127.012 268.458 126.323L268.348 125.061H269.129L269.231 126.227C269.264 126.601 269.478 126.767 269.824 126.767C270.184 126.767 270.428 126.576 270.392 126.165L270.295 125.06H271.075V125.062Z" fill="#EA8324"/>
<path d="M276.43 126.016L276.542 127.294H275.761L275.658 126.115C275.626 125.754 275.417 125.588 275.101 125.588C274.751 125.588 274.522 125.775 274.557 126.173L274.655 127.293H273.874L273.771 126.114C273.739 125.753 273.54 125.587 273.214 125.587C272.868 125.587 272.64 125.774 272.674 126.172L272.772 127.292H271.991L271.796 125.059H272.542L272.564 125.316C272.748 125.126 273.039 125.026 273.385 125.026C273.76 125.026 274.091 125.147 274.303 125.392C274.498 125.163 274.837 125.026 275.242 125.026C275.883 125.028 276.37 125.335 276.43 126.016Z" fill="#EA8324"/>
<path d="M280.073 126.178C280.135 126.88 279.588 127.327 278.833 127.327C278.473 127.327 278.174 127.232 277.961 127.037L277.983 127.294H277.237L276.967 124.215H277.748L277.843 125.298C278.028 125.116 278.295 125.028 278.631 125.028C279.387 125.028 280.012 125.477 280.073 126.178ZM279.283 126.178C279.249 125.793 278.933 125.56 278.543 125.56C278.152 125.56 277.877 125.793 277.911 126.178C277.945 126.564 278.261 126.797 278.651 126.797C279.042 126.796 279.317 126.564 279.283 126.178Z" fill="#EA8324"/>
<path d="M283.228 126.36H281.191C281.291 126.638 281.59 126.809 282.001 126.809C282.286 126.809 282.485 126.738 282.657 126.593L283.105 126.966C282.876 127.202 282.511 127.327 282.026 127.327C281.095 127.327 280.447 126.842 280.389 126.178C280.33 125.511 280.904 125.029 281.725 125.029C282.516 125.029 283.165 125.469 283.228 126.187C283.232 126.236 283.228 126.307 283.228 126.36ZM281.148 125.983H282.474C282.394 125.701 282.123 125.519 281.773 125.519C281.418 125.519 281.178 125.696 281.148 125.983Z" fill="#EA8324"/>
<path d="M285.316 125.028L285.368 125.626C285.302 125.622 285.252 125.618 285.192 125.618C284.761 125.618 284.493 125.813 284.53 126.24L284.622 127.294H283.841L283.646 125.061H284.392L284.418 125.356C284.59 125.141 284.9 125.028 285.316 125.028Z" fill="#EA8324"/>
<path d="M139.057 101.794L139.288 101.288C139.599 101.466 140.05 101.591 140.47 101.591C140.95 101.591 141.135 101.458 141.119 101.28C141.071 100.736 139.067 101.11 138.973 100.031C138.929 99.537 139.374 99.126 140.37 99.126C140.81 99.126 141.268 99.213 141.609 99.383L141.403 99.893C141.065 99.74 140.723 99.665 140.412 99.665C139.932 99.665 139.76 99.814 139.776 99.997C139.823 100.532 141.827 100.163 141.921 101.229C141.963 101.714 141.514 102.129 140.513 102.129C139.957 102.13 139.385 101.994 139.057 101.794Z" fill="#EA8324"/>
<path d="M144.219 101.973C144.067 102.068 143.836 102.114 143.595 102.114C142.959 102.114 142.566 101.844 142.519 101.313L142.438 100.395H142.022L141.979 99.897H142.394L142.347 99.354H143.128L143.175 99.897H143.846L143.889 100.395H143.219L143.299 101.304C143.316 101.495 143.45 101.598 143.66 101.598C143.775 101.598 143.888 101.569 143.968 101.515L144.219 101.973Z" fill="#EA8324"/>
<path d="M146.938 100.807L147.049 102.081H146.319L146.294 101.803C146.167 102.007 145.896 102.115 145.5 102.115C144.87 102.115 144.469 101.824 144.435 101.439C144.4 101.044 144.712 100.771 145.533 100.771H146.154C146.13 100.493 145.915 100.331 145.495 100.331C145.21 100.331 144.921 100.41 144.738 100.538L144.418 100.086C144.698 99.9119 145.126 99.8159 145.556 99.8159C146.375 99.8149 146.879 100.13 146.938 100.807ZM146.207 101.376L146.187 101.147H145.651C145.286 101.147 145.18 101.259 145.194 101.409C145.208 101.571 145.382 101.678 145.658 101.678C145.918 101.678 146.134 101.579 146.207 101.376Z" fill="#EA8324"/>
<path d="M149.478 101.973C149.326 102.068 149.095 102.114 148.854 102.114C148.218 102.114 147.825 101.844 147.778 101.313L147.697 100.395H147.282L147.238 99.897H147.654L147.607 99.354H148.388L148.435 99.897H149.105L149.149 100.395H148.479L148.559 101.304C148.576 101.495 148.71 101.598 148.92 101.598C149.035 101.598 149.148 101.569 149.228 101.515L149.478 101.973Z" fill="#EA8324"/>
<path d="M152.383 101.147H150.346C150.446 101.425 150.745 101.595 151.156 101.595C151.441 101.595 151.64 101.525 151.812 101.379L152.26 101.753C152.031 101.989 151.666 102.114 151.181 102.114C150.25 102.114 149.602 101.629 149.544 100.965C149.486 100.297 150.059 99.8149 150.88 99.8149C151.671 99.8149 152.32 100.255 152.383 100.973C152.386 101.023 152.383 101.093 152.383 101.147ZM150.302 100.77H151.628C151.548 100.488 151.277 100.305 150.927 100.305C150.572 100.305 150.332 100.483 150.302 100.77Z" fill="#EA8324"/>
<path d="M236.209 56.5449H237.02L237.269 59.3859H239.026L239.084 60.0459H236.517L236.209 56.5449Z" fill="#EA8324"/>
<path d="M241.758 58.5109L241.892 60.0459H241.161L241.132 59.7109C241.008 59.9559 240.739 60.0859 240.344 60.0859C239.713 60.0859 239.307 59.7359 239.266 59.2709C239.224 58.7959 239.531 58.4659 240.352 58.4659H240.973C240.944 58.1309 240.727 57.9359 240.306 57.9359C240.021 57.9359 239.734 58.0309 239.552 58.1859L239.224 57.6409C239.501 57.4309 239.927 57.3159 240.357 57.3159C241.178 57.3149 241.687 57.6949 241.758 58.5109ZM241.037 59.1949L241.013 58.9199H240.477C240.112 58.9199 240.008 59.0549 240.024 59.2349C240.041 59.4299 240.218 59.5599 240.493 59.5599C240.754 59.5609 240.969 59.4399 241.037 59.1949Z" fill="#EA8324"/>
<path d="M242.313 59.7949L242.524 59.2349C242.778 59.3899 243.152 59.4949 243.483 59.4949C243.843 59.4949 243.97 59.3999 243.957 59.2499C243.919 58.8099 242.331 59.2599 242.237 58.1849C242.192 57.6749 242.621 57.3149 243.407 57.3149C243.778 57.3149 244.196 57.3999 244.464 57.5499L244.252 58.1049C243.974 57.9549 243.704 57.9049 243.459 57.9049C243.108 57.9049 242.968 58.0149 242.98 58.1549C243.021 58.6149 244.608 58.1699 244.701 59.2299C244.745 59.7299 244.31 60.0849 243.504 60.0849C243.048 60.0849 242.578 59.9599 242.313 59.7949Z" fill="#EA8324"/>
<path d="M246.975 59.9158C246.825 60.0308 246.594 60.0848 246.354 60.0848C245.718 60.0848 245.32 59.7598 245.264 59.1198L245.167 58.0148H244.751L244.699 57.4148H245.114L245.056 56.7598H245.837L245.895 57.4148H246.565L246.617 58.0148H245.947L246.043 59.1098C246.064 59.3398 246.199 59.4648 246.41 59.4648C246.525 59.4648 246.637 59.4298 246.716 59.3648L246.975 59.9158Z" fill="#EA8324"/>
<path d="M251.801 56.5449L252.107 60.0459H251.441L249.508 57.9199L249.694 60.0459H248.893L248.587 56.5449H249.257L251.185 58.6709L250.999 56.5449H251.801Z" fill="#EA8324"/>
<path d="M255.128 58.5109L255.262 60.0459H254.532L254.503 59.7109C254.379 59.9559 254.11 60.0859 253.714 60.0859C253.084 60.0859 252.678 59.7359 252.637 59.2709C252.595 58.7959 252.902 58.4659 253.723 58.4659H254.344C254.315 58.1309 254.097 57.9359 253.677 57.9359C253.392 57.9359 253.105 58.0309 252.923 58.1859L252.595 57.6409C252.872 57.4309 253.298 57.3159 253.728 57.3159C254.548 57.3149 255.056 57.6949 255.128 58.5109ZM254.407 59.1949L254.383 58.9199H253.847C253.482 58.9199 253.379 59.0549 253.394 59.2349C253.411 59.4299 253.587 59.5599 253.863 59.5599C254.123 59.5609 254.338 59.4399 254.407 59.1949Z" fill="#EA8324"/>
<path d="M260.379 58.5049L260.514 60.0449H259.733L259.609 58.6249C259.571 58.1899 259.359 57.9899 259.043 57.9899C258.692 57.9899 258.467 58.2149 258.509 58.6949L258.627 60.0449H257.846L257.721 58.6249C257.683 58.1899 257.481 57.9899 257.156 57.9899C256.81 57.9899 256.585 58.2149 256.627 58.6949L256.745 60.0449H255.964L255.729 57.3549H256.475L256.502 57.6649C256.682 57.4349 256.971 57.3149 257.316 57.3149C257.691 57.3149 258.025 57.4609 258.242 57.7549C258.433 57.4809 258.769 57.3149 259.174 57.3149C259.815 57.3149 260.307 57.6849 260.379 58.5049Z" fill="#EA8324"/>
<path d="M263.764 58.9199H261.727C261.832 59.2549 262.135 59.4599 262.545 59.4599C262.83 59.4599 263.028 59.3749 263.198 59.1999L263.653 59.6509C263.428 59.9359 263.066 60.0859 262.58 60.0859C261.649 60.0859 260.992 59.5009 260.922 58.7009C260.852 57.8959 261.417 57.3159 262.237 57.3159C263.028 57.3159 263.685 57.8459 263.76 58.7119C263.766 58.7699 263.763 58.8549 263.764 58.9199ZM261.677 58.4649H263.003C262.918 58.1249 262.644 57.9049 262.293 57.9049C261.938 57.9049 261.702 58.1209 261.677 58.4649Z" fill="#EA8324"/>
<path d="M230.17 71.161H136.198L135.491 63.082H229.463L230.17 71.161Z" fill="white"/>
<path d="M233.831 113.009H139.859L139.152 104.93H233.124L233.831 113.009Z" fill="white"/>
<path d="M235.972 137.472H142L141.294 129.393H235.266L235.972 137.472Z" fill="white"/>
<path d="M237.926 159.809H143.955L143.248 151.73H237.22L237.926 159.809Z" fill="white"/>
<path d="M337.026 137.472H243.054L242.347 129.393H336.319L337.026 137.472Z" fill="white"/>
<path d="M332.97 91.122H137.944L137.237 83.042H332.263L332.97 91.122Z" fill="white"/>
<path d="M331.225 71.161H237.253L236.546 63.082H330.518L331.225 71.161Z" fill="white"/>
<path d="M264.468 136.615H257.224L256.641 129.954H263.885L264.468 136.615Z" fill="#E0E0E0"/>
<path d="M262.783 132.149L260.715 134.716L258.199 132.149H262.783Z" fill="#263238"/>
<path d="M247.34 133.433H246.469L246.543 134.283H245.897L245.823 133.433H244.957L244.904 132.822H245.769L245.695 131.972H246.34L246.414 132.822H247.285L247.34 133.433Z" fill="#263238"/>
<path d="M250.358 133.808C250.41 134.398 250.001 134.938 249.006 134.938C248.515 134.938 247.998 134.803 247.636 134.563L247.897 133.943C248.18 134.143 248.561 134.258 248.926 134.258C249.332 134.258 249.567 134.094 249.542 133.808C249.519 133.543 249.31 133.378 248.849 133.378H248.479L248.432 132.843L249.081 132.028H247.59L247.533 131.378H249.985L250.031 131.903L249.319 132.803C249.959 132.902 250.313 133.292 250.358 133.808Z" fill="#263238"/>
<path d="M253.359 134.218L253.417 134.878H250.77L250.724 134.353L251.964 133.078C252.248 132.783 252.288 132.603 252.273 132.433C252.249 132.158 252.044 131.998 251.674 131.998C251.374 131.998 251.128 132.113 250.979 132.348L250.355 131.968C250.591 131.573 251.059 131.318 251.69 131.318C252.471 131.318 253.026 131.718 253.082 132.353C253.112 132.693 253.044 133.003 252.593 133.458L251.854 134.219L253.359 134.218Z" fill="#263238"/>
<path d="M316.54 134.916H268.777L268.535 132.149H316.298L316.54 134.916Z" fill="#263238"/>
<path d="M192.026 134.916H144.264L144.021 132.149H191.784L192.026 134.916Z" fill="#263238"/>
<path d="M163.976 110.353H142.115L141.872 107.586H163.734L163.976 110.353Z" fill="#263238"/>
<path d="M160.315 68.5053H138.453L138.211 65.7383H160.073L160.315 68.5053Z" fill="#263238"/>
<path d="M261.795 68.5053H239.934L239.692 65.7383H261.553L261.795 68.5053Z" fill="#263238"/>
<path d="M312.477 88.4652H140.2L139.958 85.6992H312.235L312.477 88.4652Z" fill="#263238"/>
<path d="M149.039 155.958L149.839 156.372L149.546 156.946L148.736 156.491L148.824 157.339H148.165L148.097 156.484L147.367 156.946L146.98 156.372L147.708 155.958L146.908 155.538L147.194 154.963L148.005 155.425L147.923 154.571H148.582L148.643 155.425L149.373 154.963L149.767 155.538L149.039 155.958Z" fill="#263238"/>
<path d="M154.058 155.958L154.858 156.372L154.565 156.946L153.755 156.491L153.843 157.339H153.184L153.116 156.484L152.386 156.946L151.999 156.372L152.726 155.958L151.926 155.538L152.212 154.963L153.023 155.425L152.941 154.571H153.6L153.66 155.425L154.39 154.963L154.783 155.538L154.058 155.958Z" fill="#263238"/>
<path d="M159.077 155.958L159.877 156.372L159.584 156.946L158.774 156.491L158.862 157.339H158.203L158.135 156.484L157.405 156.946L157.018 156.372L157.746 155.958L156.946 155.538L157.232 154.963L158.043 155.425L157.961 154.571H158.62L158.681 155.425L159.411 154.963L159.805 155.538L159.077 155.958Z" fill="#263238"/>
<path d="M164.096 155.958L164.896 156.372L164.603 156.946L163.793 156.491L163.881 157.339H163.222L163.154 156.484L162.424 156.946L162.037 156.372L162.764 155.958L161.964 155.538L162.25 154.963L163.061 155.425L162.979 154.571H163.638L163.699 155.425L164.429 154.963L164.822 155.538L164.096 155.958Z" fill="#263238"/>
<path d="M169.115 155.958L169.915 156.372L169.622 156.946L168.812 156.491L168.9 157.339H168.241L168.173 156.484L167.443 156.946L167.056 156.372L167.783 155.958L166.983 155.538L167.269 154.963L168.08 155.425L167.999 154.571H168.658L168.719 155.425L169.449 154.963L169.843 155.538L169.115 155.958Z" fill="#263238"/>
<path d="M174.134 155.958L174.934 156.372L174.641 156.946L173.831 156.491L173.919 157.339H173.26L173.192 156.484L172.462 156.946L172.075 156.372L172.802 155.958L172.002 155.538L172.288 154.963L173.099 155.425L173.017 154.571H173.676L173.737 155.425L174.467 154.963L174.86 155.538L174.134 155.958Z" fill="#263238"/>
<path d="M179.153 155.958L179.953 156.372L179.66 156.946L178.85 156.491L178.938 157.339H178.279L178.211 156.484L177.481 156.946L177.094 156.372L177.821 155.958L177.021 155.538L177.307 154.963L178.118 155.425L178.036 154.571H178.695L178.756 155.425L179.486 154.963L179.88 155.538L179.153 155.958Z" fill="#263238"/>
<path opacity="0.1" d="M132.981 172.049H349.448L337.442 34.8252H120.975L132.981 172.049Z" fill="white"/>
<path opacity="0.1" d="M167.683 24.5791L209.965 182.718H195.742L153.927 24.5791H167.683Z" fill="white"/>
<path opacity="0.1" d="M145.732 24.5791L188.014 182.718H159.801L117.986 24.5791H145.732Z" fill="white"/>
<path d="M145.183 20.2939L139.019 20.3457L139.029 21.6217L145.193 21.5699L145.183 20.2939Z" fill="#EA8324"/>
<path d="M168.524 20.0988L150.645 20.249L150.655 21.525L168.534 21.3748L168.524 20.0988Z" fill="#EA8324"/>
<path opacity="0.5" d="M359.832 106.6C360.151 110.242 357.457 113.194 353.815 113.194C350.173 113.194 346.963 110.242 346.644 106.6C346.325 102.958 349.019 100.006 352.661 100.006C356.302 100.006 359.513 102.958 359.832 106.6Z" fill="black"/>
<path opacity="0.5" d="M125.142 129.957C124.441 129.957 123.822 129.389 123.761 128.687L119.38 78.6113C119.319 77.9103 119.837 77.3413 120.539 77.3413C121.24 77.3413 121.859 77.9093 121.92 78.6113L126.301 128.687C126.362 129.388 125.843 129.957 125.142 129.957Z" fill="black"/>
<path d="M141.401 356.014H120.563L118.248 351.643C112.623 341.021 109.593 329.218 109.405 317.2L109.389 316.151H152.574C152.574 329.016 149.314 341.671 143.099 352.935L141.401 356.014Z" fill="#EA4600"/>
<path opacity="0.7" d="M141.401 356.014H120.563L118.248 351.643C112.623 341.021 109.593 329.218 109.405 317.2L109.389 316.151H152.574C152.574 329.016 149.314 341.671 143.099 352.935L141.401 356.014Z" fill="white"/>
<path d="M96.3732 317.009C100.29 319.647 104.855 321.032 109.41 320.963C109.958 320.955 110.523 320.921 111.016 320.648C111.508 320.376 111.912 319.805 111.873 319.185C111.828 318.474 111.259 317.973 110.734 317.583C107.801 315.403 104.61 313.674 101.277 312.441C99.5912 311.817 97.8682 311.32 96.1242 310.957C94.7242 310.666 93.2282 309.983 91.8132 309.996C91.5432 313.048 94.3202 315.626 96.3732 317.009Z" fill="#EA4600"/>
<path d="M151.932 299.469C153.886 296.963 156.697 295.342 159.631 295.028C159.802 295.01 159.989 295 160.129 295.112C160.317 295.262 160.344 295.56 160.349 295.82C160.421 299.753 159.226 303.699 157.038 306.75C156.029 308.157 154.771 309.406 153.248 309.954C152.146 310.35 150.831 310.346 149.782 309.747C148.73 309.146 148.922 308.287 149.03 307.103C149.286 304.29 150.277 301.592 151.932 299.469Z" fill="#EA4600"/>
<path opacity="0.2" d="M151.932 299.469C153.886 296.963 156.697 295.342 159.631 295.028C159.802 295.01 159.989 295 160.129 295.112C160.317 295.262 160.344 295.56 160.349 295.82C160.421 299.753 159.226 303.699 157.038 306.75C156.029 308.157 154.771 309.406 153.248 309.954C152.146 310.35 150.831 310.346 149.782 309.747C148.73 309.146 148.922 308.287 149.03 307.103C149.286 304.29 150.277 301.592 151.932 299.469Z" fill="black"/>
<path d="M133.083 301.256C134.53 298.671 135.591 295.346 135.638 291.826C135.678 288.875 135.005 285.994 134.04 283.51C133.075 281.026 131.825 278.885 130.583 276.763C130.18 283.158 130.063 289.602 130.234 296.026C130.27 297.39 130.328 298.804 130.722 300.005C131.116 301.206 131.943 302.13 132.749 301.831L133.083 301.256Z" fill="#EA4600"/>
<path d="M138.672 281.701C135.946 285.732 134.233 291.579 134.01 297.612C133.931 299.744 134.045 301.969 134.673 303.835C135.301 305.701 136.537 307.122 137.824 306.928C139.168 306.725 140.208 304.917 140.967 303.073C142.228 300.008 143.76 295.636 143.042 291.859C142.272 287.818 140.751 284.197 138.672 281.701Z" fill="#EA4600"/>
<path opacity="0.1" d="M138.672 281.701C135.946 285.732 134.233 291.579 134.01 297.612C133.931 299.744 134.045 301.969 134.673 303.835C135.301 305.701 136.537 307.122 137.824 306.928C139.168 306.725 140.208 304.917 140.967 303.073C142.228 300.008 143.76 295.636 143.042 291.859C142.272 287.818 140.751 284.197 138.672 281.701Z" fill="black"/>
<path d="M146.945 304.189C149.169 302.117 150.078 298.647 149.978 295.382C149.878 292.118 148.906 288.98 147.945 285.901C145.777 288.874 144.009 292.224 142.723 295.797C142.23 297.166 141.803 298.596 141.774 300.074C141.745 301.552 142.163 303.1 143.133 304.086C144.104 305.072 145.679 305.336 146.73 304.463C146.606 304.537 146.482 304.61 146.358 304.684L146.945 304.189Z" fill="#EA4600"/>
<g opacity="0.2">
<path d="M146.945 304.189C149.169 302.117 150.078 298.647 149.978 295.382C149.878 292.118 148.906 288.98 147.945 285.901C145.777 288.874 144.009 292.224 142.723 295.797C142.23 297.166 141.803 298.596 141.774 300.074C141.745 301.552 142.163 303.1 143.133 304.086C144.104 305.072 145.679 305.336 146.73 304.463C146.606 304.537 146.482 304.61 146.358 304.684L146.945 304.189Z" fill="black"/>
</g>
<path d="M152.018 291.382C152.573 295.413 153.118 299.542 152.437 303.549C151.756 307.555 149.6 311.483 146.228 312.896C144.825 313.484 143.02 313.49 142.079 312.171C141.446 311.284 141.383 310.007 141.668 308.912C141.953 307.817 142.538 306.86 143.113 305.924C145.804 301.55 151.41 290.947 151.981 291.392L152.018 291.382Z" fill="#EA4600"/>
<path d="M152.018 291.382C152.573 295.413 153.118 299.542 152.437 303.549C151.756 307.555 149.6 311.483 146.228 312.896C144.825 313.484 143.02 313.49 142.079 312.171C141.446 311.284 141.383 310.007 141.668 308.912C141.953 307.817 142.538 306.86 143.113 305.924C145.804 301.55 151.41 290.947 151.981 291.392L152.018 291.382Z" fill="#EA4600"/>
<g opacity="0.1">
<path d="M152.018 291.382C152.573 295.413 153.118 299.542 152.437 303.549C151.756 307.555 149.6 311.483 146.228 312.896C144.825 313.484 143.02 313.49 142.079 312.171C141.446 311.284 141.383 310.007 141.668 308.912C141.953 307.817 142.538 306.86 143.113 305.924C145.804 301.55 151.41 290.947 151.981 291.392L152.018 291.382Z" fill="black"/>
</g>
<path d="M141.597 296.83C142.914 299.22 144.021 301.805 144.475 304.577C144.929 307.349 144.684 310.334 143.442 312.775C142.2 315.216 139.876 317.015 137.393 317.034C135.473 317.049 133.593 315.885 132.552 314.058C131.404 312.041 132.243 310.209 133.119 308.235C135.108 303.748 138.408 300.218 141.597 296.83Z" fill="#EA4600"/>
<path d="M166.349 304.284C167.037 305.402 167.011 306.939 166.549 308.198C166.087 309.457 165.248 310.486 164.374 311.422C158.434 317.784 149.991 321.014 141.87 320.03C141.194 319.948 140.43 319.774 140.08 319.113C139.694 318.383 140.042 317.387 140.635 316.867C141.228 316.347 141.996 316.177 142.729 315.998C146.887 314.979 150.862 313.146 154.494 310.637C158.135 308.121 162.463 306.382 166.349 304.284Z" fill="#EA4600"/>
<path opacity="0.1" d="M166.349 304.284C167.037 305.402 167.011 306.939 166.549 308.198C166.087 309.457 165.248 310.486 164.374 311.422C158.434 317.784 149.991 321.014 141.87 320.03C141.194 319.948 140.43 319.774 140.08 319.113C139.694 318.383 140.042 317.387 140.635 316.867C141.228 316.347 141.996 316.177 142.729 315.998C146.887 314.979 150.862 313.146 154.494 310.637C158.135 308.121 162.463 306.382 166.349 304.284Z" fill="black"/>
<path d="M151.99 304.274C152.592 303.379 153.349 302.346 154.336 302.458C155.101 302.545 155.664 303.321 155.981 304.116C157.268 307.343 155.729 311.296 153.269 313.476C150.809 315.656 147.652 316.483 144.605 317.252C143.56 317.516 142.515 317.779 141.47 318.043C140.226 318.357 137.73 317.938 138.841 315.97C139.585 314.651 142.077 313.899 143.231 313.119C146.608 310.837 149.603 307.822 151.99 304.274Z" fill="#EA4600"/>
<path d="M164.92 317.009C161.003 319.647 156.438 321.032 151.883 320.963C151.335 320.955 150.77 320.921 150.277 320.648C149.785 320.376 149.381 319.805 149.42 319.185C149.465 318.474 150.034 317.973 150.559 317.583C153.492 315.403 156.683 313.674 160.016 312.441C161.702 311.817 163.425 311.32 165.169 310.957C166.569 310.666 168.065 309.983 169.48 309.996C169.75 313.048 166.972 315.626 164.92 317.009Z" fill="#EA4600"/>
<path d="M152.29 329.088C156.134 328.811 159.82 327.056 162.986 324.565C163.59 324.09 164.251 323.329 163.983 322.552C163.795 322.007 163.238 321.779 162.743 321.613C159.106 320.394 155.39 319.164 151.601 319.329C149.812 319.407 148.017 319.84 146.379 320.67C145.1 321.319 142.449 322.911 142.075 324.632C141.688 326.412 145.009 327.709 146.231 328.185C148.17 328.942 150.247 329.236 152.29 329.088Z" fill="#EA4600"/>
<path opacity="0.1" d="M152.29 329.088C156.134 328.811 159.82 327.056 162.986 324.565C163.59 324.09 164.251 323.329 163.983 322.552C163.795 322.007 163.238 321.779 162.743 321.613C159.106 320.394 155.39 319.164 151.601 319.329C149.812 319.407 148.017 319.84 146.379 320.67C145.1 321.319 142.449 322.911 142.075 324.632C141.688 326.412 145.009 327.709 146.231 328.185C148.17 328.942 150.247 329.236 152.29 329.088Z" fill="black"/>
<path d="M137.115 319.571C140.855 318.715 144.709 318.506 148.504 318.953C149.447 319.064 150.409 319.224 151.241 319.739C152.073 320.255 152.758 321.197 152.789 322.272C152.82 323.355 152.183 324.349 151.382 324.938C150.581 325.527 149.631 325.785 148.702 326.029C145.961 326.751 143.149 327.451 140.354 327.072C138.3 326.794 135.885 325.794 134.556 323.89C132.832 321.423 135.104 320.031 137.115 319.571Z" fill="#EA4600"/>
<path opacity="0.1" d="M137.115 319.571C140.855 318.715 144.709 318.506 148.504 318.953C149.447 319.064 150.409 319.224 151.241 319.739C152.073 320.255 152.758 321.197 152.789 322.272C152.82 323.355 152.183 324.349 151.382 324.938C150.581 325.527 149.631 325.785 148.702 326.029C145.961 326.751 143.149 327.451 140.354 327.072C138.3 326.794 135.885 325.794 134.556 323.89C132.832 321.423 135.104 320.031 137.115 319.571Z" fill="white"/>
<path d="M125.705 319.537C124.98 318.984 124.257 318.359 123.845 317.486C123.433 316.613 123.414 315.426 124.02 314.712C124.887 313.692 129.711 312.244 130.923 311.963C131.935 311.729 132.967 312.156 133.923 312.6C135.305 313.242 136.669 313.933 138.012 314.672C138.681 315.04 139.36 315.433 139.872 316.045C140.384 316.657 140.708 317.538 140.52 318.356C140.256 319.507 139.149 320.094 138.15 320.453C135.569 321.379 132.851 321.81 130.146 321.721C130.332 321.679 126.905 320.453 125.705 319.537Z" fill="#EA4600"/>
<g opacity="0.1">
<path d="M125.705 319.537C124.98 318.984 124.257 318.359 123.845 317.486C123.433 316.613 123.414 315.426 124.02 314.712C124.887 313.692 129.711 312.244 130.923 311.963C131.935 311.729 132.967 312.156 133.923 312.6C135.305 313.242 136.669 313.933 138.012 314.672C138.681 315.04 139.36 315.433 139.872 316.045C140.384 316.657 140.708 317.538 140.52 318.356C140.256 319.507 139.149 320.094 138.15 320.453C135.569 321.379 132.851 321.81 130.146 321.721C130.332 321.679 126.905 320.453 125.705 319.537Z" fill="black"/>
</g>
<path d="M135.501 321.439C136.687 321.803 137.819 322.614 138.377 323.856C138.935 325.099 138.774 326.794 137.818 327.67C137.123 328.307 136.175 328.421 135.285 328.509C134.187 328.618 133.089 328.727 131.991 328.837C131.296 328.906 130.533 328.956 129.965 328.495C129.198 327.872 129.132 326.629 129.138 325.559C129.144 324.538 129.156 323.486 129.508 322.546C129.958 321.343 130.798 320.738 131.892 320.912C133.081 321.1 134.337 321.081 135.501 321.439Z" fill="#EA4600"/>
<path d="M109.36 299.469C107.406 296.963 104.595 295.342 101.661 295.028C101.49 295.01 101.303 295 101.163 295.112C100.976 295.262 100.948 295.56 100.943 295.82C100.871 299.753 102.066 303.699 104.254 306.75C105.263 308.157 106.521 309.406 108.044 309.954C109.146 310.35 110.461 310.346 111.51 309.747C112.562 309.146 112.37 308.287 112.262 307.103C112.007 304.29 111.016 301.592 109.36 299.469Z" fill="#EA4600"/>
<path opacity="0.2" d="M109.36 299.469C107.406 296.963 104.595 295.342 101.661 295.028C101.49 295.01 101.303 295 101.163 295.112C100.976 295.262 100.948 295.56 100.943 295.82C100.871 299.753 102.066 303.699 104.254 306.75C105.263 308.157 106.521 309.406 108.044 309.954C109.146 310.35 110.461 310.346 111.51 309.747C112.562 309.146 112.37 308.287 112.262 307.103C112.007 304.29 111.016 301.592 109.36 299.469Z" fill="black"/>
<path d="M128.208 301.256C126.761 298.671 125.7 295.346 125.653 291.826C125.614 288.875 126.286 285.994 127.251 283.51C128.216 281.026 129.466 278.885 130.708 276.763C131.111 283.158 131.228 289.602 131.057 296.026C131.021 297.39 130.963 298.804 130.569 300.005C130.175 301.206 129.348 302.13 128.542 301.831L128.208 301.256Z" fill="#EA4600"/>
<path d="M122.62 281.701C125.346 285.732 127.059 291.579 127.282 297.612C127.361 299.744 127.247 301.969 126.619 303.835C125.991 305.701 124.755 307.122 123.468 306.928C122.124 306.725 121.084 304.917 120.325 303.073C119.064 300.008 117.532 295.636 118.25 291.859C119.02 287.818 120.541 284.197 122.62 281.701Z" fill="#EA4600"/>
<path opacity="0.1" d="M122.62 281.701C125.346 285.732 127.059 291.579 127.282 297.612C127.361 299.744 127.247 301.969 126.619 303.835C125.991 305.701 124.755 307.122 123.468 306.928C122.124 306.725 121.084 304.917 120.325 303.073C119.064 300.008 117.532 295.636 118.25 291.859C119.02 287.818 120.541 284.197 122.62 281.701Z" fill="black"/>
<path d="M114.348 304.189C112.124 302.117 111.215 298.647 111.315 295.382C111.415 292.118 112.387 288.98 113.348 285.901C115.516 288.874 117.284 292.224 118.57 295.797C119.063 297.166 119.49 298.596 119.519 300.074C119.548 301.552 119.13 303.1 118.16 304.086C117.189 305.072 115.614 305.336 114.563 304.463C114.687 304.537 114.811 304.61 114.935 304.684L114.348 304.189Z" fill="#EA4600"/>
<g opacity="0.2">
<path d="M114.348 304.189C112.124 302.117 111.215 298.647 111.315 295.382C111.415 292.118 112.387 288.98 113.348 285.901C115.516 288.874 117.284 292.224 118.57 295.797C119.063 297.166 119.49 298.596 119.519 300.074C119.548 301.552 119.13 303.1 118.16 304.086C117.189 305.072 115.614 305.336 114.563 304.463C114.687 304.537 114.811 304.61 114.935 304.684L114.348 304.189Z" fill="black"/>
</g>
<path d="M109.274 291.382C108.719 295.413 108.174 299.542 108.855 303.549C109.536 307.555 111.692 311.483 115.064 312.896C116.467 313.484 118.272 313.49 119.213 312.171C119.846 311.284 119.909 310.007 119.624 308.912C119.339 307.817 118.754 306.86 118.178 305.924C115.487 301.55 109.881 290.947 109.31 291.392L109.274 291.382Z" fill="#EA4600"/>
<path d="M109.274 291.382C108.719 295.413 108.174 299.542 108.855 303.549C109.536 307.555 111.692 311.483 115.064 312.896C116.467 313.484 118.272 313.49 119.213 312.171C119.846 311.284 119.909 310.007 119.624 308.912C119.339 307.817 118.754 306.86 118.178 305.924C115.487 301.55 109.881 290.947 109.31 291.392L109.274 291.382Z" fill="#EA4600"/>
<g opacity="0.1">
<path d="M109.274 291.382C108.719 295.413 108.174 299.542 108.855 303.549C109.536 307.555 111.692 311.483 115.064 312.896C116.467 313.484 118.272 313.49 119.213 312.171C119.846 311.284 119.909 310.007 119.624 308.912C119.339 307.817 118.754 306.86 118.178 305.924C115.487 301.55 109.881 290.947 109.31 291.392L109.274 291.382Z" fill="black"/>
</g>
<path d="M119.696 296.83C118.379 299.22 117.272 301.805 116.818 304.577C116.364 307.349 116.608 310.334 117.851 312.775C119.093 315.216 121.417 317.015 123.9 317.034C125.82 317.049 127.7 315.885 128.741 314.058C129.889 312.041 129.05 310.209 128.174 308.235C126.184 303.748 122.885 300.218 119.696 296.83Z" fill="#EA4600"/>
<path d="M94.9328 304.599C94.2578 305.695 94.2838 307.202 94.7358 308.436C95.1888 309.67 96.0107 310.679 96.8677 311.596C102.69 317.833 110.967 320.998 118.927 320.034C119.59 319.954 120.338 319.783 120.682 319.135C121.06 318.42 120.72 317.443 120.138 316.933C119.556 316.423 118.804 316.257 118.086 316.081C114.01 315.082 110.114 313.285 106.553 310.826C102.984 308.36 98.7418 306.655 94.9328 304.599Z" fill="#EA4600"/>
<path opacity="0.1" d="M94.9328 304.599C94.2578 305.695 94.2838 307.202 94.7358 308.436C95.1888 309.67 96.0107 310.679 96.8677 311.596C102.69 317.833 110.967 320.998 118.927 320.034C119.59 319.954 120.338 319.783 120.682 319.135C121.06 318.42 120.72 317.443 120.138 316.933C119.556 316.423 118.804 316.257 118.086 316.081C114.01 315.082 110.114 313.285 106.553 310.826C102.984 308.36 98.7418 306.655 94.9328 304.599Z" fill="black"/>
<path d="M108.619 303.998C108.028 303.119 107.285 302.105 106.316 302.215C105.565 302.301 105.013 303.063 104.702 303.843C103.439 307.012 104.949 310.892 107.364 313.032C109.779 315.173 112.879 315.985 115.87 316.74C116.896 316.999 117.922 317.258 118.948 317.517C120.169 317.825 122.62 317.414 121.53 315.481C120.799 314.186 118.353 313.448 117.22 312.682C113.902 310.442 110.962 307.481 108.619 303.998Z" fill="#EA4600"/>
<path d="M109.001 329.088C105.157 328.811 101.471 327.056 98.3054 324.565C97.7014 324.09 97.0404 323.329 97.3084 322.552C97.4964 322.007 98.0534 321.779 98.5484 321.613C102.185 320.394 105.901 319.164 109.69 319.329C111.479 319.407 113.274 319.84 114.912 320.67C116.191 321.319 118.842 322.911 119.216 324.632C119.603 326.412 116.282 327.709 115.06 328.185C113.122 328.942 111.045 329.236 109.001 329.088Z" fill="#EA4600"/>
<path opacity="0.1" d="M109.001 329.088C105.157 328.811 101.471 327.056 98.3054 324.565C97.7014 324.09 97.0404 323.329 97.3084 322.552C97.4964 322.007 98.0534 321.779 98.5484 321.613C102.185 320.394 105.901 319.164 109.69 319.329C111.479 319.407 113.274 319.84 114.912 320.67C116.191 321.319 118.842 322.911 119.216 324.632C119.603 326.412 116.282 327.709 115.06 328.185C113.122 328.942 111.045 329.236 109.001 329.088Z" fill="black"/>
<path d="M124.178 319.571C120.438 318.715 116.584 318.506 112.789 318.953C111.846 319.064 110.884 319.224 110.052 319.739C109.22 320.255 108.535 321.197 108.504 322.272C108.473 323.355 109.11 324.349 109.911 324.938C110.712 325.527 111.662 325.785 112.591 326.029C115.333 326.751 118.144 327.451 120.939 327.072C122.993 326.794 125.408 325.794 126.737 323.89C128.46 321.423 126.188 320.031 124.178 319.571Z" fill="#EA4600"/>
<path opacity="0.1" d="M124.178 319.571C120.438 318.715 116.584 318.506 112.789 318.953C111.846 319.064 110.884 319.224 110.052 319.739C109.22 320.255 108.535 321.197 108.504 322.272C108.473 323.355 109.11 324.349 109.911 324.938C110.712 325.527 111.662 325.785 112.591 326.029C115.333 326.751 118.144 327.451 120.939 327.072C122.993 326.794 125.408 325.794 126.737 323.89C128.46 321.423 126.188 320.031 124.178 319.571Z" fill="white"/>
<path d="M135.586 319.537C136.311 318.984 137.034 318.359 137.446 317.486C137.858 316.613 137.877 315.426 137.271 314.712C136.404 313.692 131.58 312.244 130.368 311.963C129.356 311.729 128.324 312.156 127.368 312.6C125.986 313.242 124.622 313.933 123.279 314.672C122.61 315.04 121.931 315.433 121.419 316.045C120.907 316.657 120.583 317.538 120.771 318.356C121.035 319.507 122.142 320.094 123.141 320.453C125.722 321.379 128.44 321.81 131.145 321.721C130.959 321.679 134.387 320.453 135.586 319.537Z" fill="#EA4600"/>
<g opacity="0.1">
<path d="M135.586 319.537C136.311 318.984 137.034 318.359 137.446 317.486C137.858 316.613 137.877 315.426 137.271 314.712C136.404 313.692 131.58 312.244 130.368 311.963C129.356 311.729 128.324 312.156 127.368 312.6C125.986 313.242 124.622 313.933 123.279 314.672C122.61 315.04 121.931 315.433 121.419 316.045C120.907 316.657 120.583 317.538 120.771 318.356C121.035 319.507 122.142 320.094 123.141 320.453C125.722 321.379 128.44 321.81 131.145 321.721C130.959 321.679 134.387 320.453 135.586 319.537Z" fill="black"/>
</g>
<path d="M125.792 321.439C124.606 321.803 123.473 322.614 122.915 323.856C122.357 325.099 122.518 326.794 123.474 327.67C124.169 328.307 125.117 328.421 126.006 328.509C127.104 328.618 128.202 328.727 129.3 328.837C129.996 328.906 130.758 328.956 131.326 328.495C132.093 327.872 132.159 326.629 132.153 325.559C132.147 324.538 132.135 323.486 131.783 322.546C131.333 321.343 130.493 320.738 129.399 320.912C128.212 321.1 126.956 321.081 125.792 321.439Z" fill="#EA4600"/>
<path d="M131.223 297.858C131.02 297.7 130.818 297.563 130.647 297.498C130.717 297.469 130.786 297.455 130.843 297.462C130.881 297.462 130.919 297.476 130.957 297.498H130.963C131.001 297.512 131.033 297.541 131.064 297.577C131.096 297.613 131.127 297.649 131.153 297.699C131.178 297.735 131.197 297.771 131.21 297.821C131.216 297.83 131.223 297.844 131.223 297.858Z" fill="#EA4600"/>
<path opacity="0.1" d="M131.229 297.858H131.223C131.02 297.7 130.818 297.563 130.647 297.498C130.717 297.469 130.786 297.455 130.843 297.462C130.881 297.462 130.919 297.476 130.957 297.498H130.963C131.001 297.512 131.033 297.541 131.064 297.577C131.096 297.613 131.127 297.649 131.153 297.699C131.178 297.735 131.197 297.771 131.21 297.821C131.216 297.83 131.223 297.844 131.229 297.858Z" fill="#EA4600"/>
<path d="M135.333 309.045C134.921 310.152 134.396 311.238 133.629 312.072C132.869 312.913 131.837 313.495 130.773 313.459C130.729 313.459 130.691 313.459 130.646 313.452H130.64C130.602 313.459 130.558 313.459 130.513 313.459C129.449 313.495 128.423 312.913 127.657 312.072C126.897 311.238 126.371 310.153 125.953 309.045C125.415 307.578 125.041 305.982 125.25 304.408C125.484 302.675 126.415 301.137 127.568 299.958C127.872 299.958 128.835 298.836 129.139 298.606C129.164 298.592 129.19 298.57 129.221 298.549C129.246 298.52 129.278 298.499 129.316 298.47C129.519 298.305 129.797 298.06 130.07 297.852C130.197 297.759 130.323 297.672 130.437 297.6C130.469 297.586 130.507 297.564 130.538 297.55C130.576 297.528 130.614 297.514 130.646 297.5C130.817 297.565 131.02 297.701 131.222 297.86H131.228C131.595 298.133 131.963 298.471 132.146 298.608C132.456 298.838 133.413 299.96 133.723 299.96C134.876 301.139 135.807 302.677 136.035 304.41C136.251 305.982 135.878 307.578 135.333 309.045Z" fill="#EA4600"/>
<path d="M130.646 297.499C130.614 297.513 130.576 297.528 130.538 297.549C130.506 297.563 130.475 297.578 130.437 297.599C130.323 297.671 130.196 297.757 130.07 297.851C130.152 297.621 130.279 297.477 130.45 297.463C130.507 297.456 130.577 297.47 130.646 297.499Z" fill="#EA4600"/>
<g opacity="0.2">
<path d="M135.333 309.045C134.921 310.152 134.396 311.238 133.629 312.072C132.869 312.913 131.837 313.495 130.773 313.459C130.729 313.459 130.691 313.459 130.646 313.452H130.64C130.602 313.459 130.558 313.459 130.513 313.459C129.449 313.495 128.423 312.913 127.657 312.072C126.897 311.238 126.371 310.153 125.953 309.045C125.415 307.578 125.041 305.982 125.25 304.408C125.484 302.675 126.415 301.137 127.568 299.958C127.872 299.958 128.835 298.836 129.139 298.606C129.329 298.469 129.709 298.124 130.07 297.851C130.279 297.693 130.475 297.563 130.646 297.499C130.817 297.564 131.026 297.7 131.229 297.859C131.596 298.132 131.964 298.47 132.147 298.607C132.457 298.837 133.414 299.959 133.724 299.959C134.877 301.138 135.808 302.676 136.036 304.409C136.251 305.982 135.878 307.578 135.333 309.045Z" fill="white"/>
<path d="M130.646 297.499C130.475 297.564 130.279 297.693 130.07 297.851C130.152 297.621 130.279 297.477 130.45 297.463C130.507 297.456 130.577 297.47 130.646 297.499Z" fill="white"/>
</g>
<path opacity="0.1" d="M131.229 297.858C131.026 297.7 130.817 297.563 130.646 297.498C130.716 297.469 130.785 297.455 130.842 297.462C131.014 297.477 131.14 297.621 131.229 297.858Z" fill="white"/>
<path d="M320.597 207.683H348.007C348.9 207.683 349.301 206.96 348.904 206.067L342.026 190.603C341.629 189.71 340.584 188.987 339.691 188.987H312.281C311.389 188.987 310.987 189.71 311.384 190.603L318.262 206.067C318.659 206.96 319.705 207.683 320.597 207.683Z" fill="#C05621"/>
<path opacity="0.2" d="M320.597 207.683H348.007C348.9 207.683 349.301 206.96 348.904 206.067L342.026 190.603C341.629 189.71 340.584 188.987 339.691 188.987H312.281C311.389 188.987 310.987 189.71 311.384 190.603L318.262 206.067C318.659 206.96 319.705 207.683 320.597 207.683Z" fill="black"/>
<path d="M311.098 188.988H312.282C311.39 188.988 310.988 189.711 311.385 190.604L318.263 206.068C318.66 206.961 319.705 207.684 320.598 207.684H319.414C318.521 207.684 317.476 206.961 317.079 206.068L310.201 190.604C309.803 189.711 310.205 188.988 311.098 188.988Z" fill="#C05621"/>
<path opacity="0.4" d="M311.098 188.988H312.282C311.39 188.988 310.988 189.711 311.385 190.604L318.263 206.068C318.66 206.961 319.705 207.684 320.598 207.684H319.414C318.521 207.684 317.476 206.961 317.079 206.068L310.201 190.604C309.803 189.711 310.205 188.988 311.098 188.988Z" fill="black"/>
<path d="M321.104 205.905H345.916L339.182 190.766H314.371L321.104 205.905Z" fill="#263238"/>
<path opacity="0.8" d="M321.104 205.905H345.916L339.182 190.766H314.371L321.104 205.905Z" fill="white"/>
<path d="M309.852 335.4L308.173 343.311L299.577 342.184L300.827 333.403L309.852 335.4Z" fill="#FAB27B"/>
<path d="M295.21 342.181C294.089 342.071 292.951 341.752 292.627 341.234C292.463 340.933 292.506 340.562 292.735 340.307C292.91 340.074 293.169 339.919 293.457 339.873C295.003 339.607 297.971 341.712 298.102 341.805C298.176 341.858 298.208 341.951 298.184 342.038C298.158 342.124 298.083 342.186 297.994 342.196C297.067 342.272 296.136 342.267 295.21 342.181ZM293.949 340.286C293.811 340.27 293.672 340.274 293.536 340.299C293.355 340.312 293.19 340.407 293.088 340.557C292.903 340.807 292.946 340.941 293 341.02C293.36 341.648 295.633 341.885 297.331 341.842C296.311 341.114 295.164 340.586 293.949 340.286Z" fill="#C05621"/>
<path d="M297.96 342.189C297.93 342.195 297.898 342.189 297.872 342.172C296.841 341.588 294.867 339.421 295.158 338.426C295.204 338.183 295.417 337.904 296.011 337.903C296.445 337.9 296.861 338.074 297.164 338.385C298.219 339.441 298.221 341.896 298.222 342.011C298.22 342.089 298.176 342.159 298.107 342.195C298.059 342.211 298.007 342.209 297.96 342.189ZM296.114 338.322L295.993 338.299C295.606 338.294 295.565 338.446 295.544 338.499C295.429 339.105 296.699 340.773 297.752 341.544C297.745 340.511 297.422 339.506 296.826 338.663C296.637 338.467 296.384 338.346 296.114 338.322Z" fill="#C05621"/>
<path d="M299.037 341.024L308.877 341.99C309.248 342.026 309.544 342.315 309.59 342.685L310.583 350.865C310.676 351.59 310.164 352.253 309.44 352.347C309.347 352.359 309.253 352.361 309.16 352.353C305.619 351.943 302.484 351.439 298.067 351.012C292.855 350.502 294.116 351.255 287.981 350.742C284.284 350.428 284.02 346.166 285.606 346.113C292.859 345.914 293.815 343.824 296.83 341.531C297.479 341.096 298.264 340.916 299.037 341.024Z" fill="#263238"/>
<path opacity="0.2" d="M300.17 338.018L309.147 338.722L309.852 335.4L300.827 333.403L300.17 338.018Z" fill="black"/>
<path d="M307.454 269.926L298.974 332.233L312.15 333.267L327.493 271.498L307.454 269.926Z" fill="#263238"/>
<path opacity="0.3" d="M307.454 269.926L298.974 332.233L312.15 333.267L327.493 271.498L307.454 269.926Z" fill="black"/>
<path d="M313.357 332.354L297.485 331.096C297.485 331.096 296.108 333.162 297.611 335.018L312.944 336.398C312.944 336.398 314.457 335.525 313.357 332.354Z" fill="#C05621"/>
<path d="M322.605 208.353L319.378 200.555C319.102 200.129 318.694 199.804 318.217 199.63L316.599 199.038C316.251 198.91 315.937 198.702 315.685 198.43L314.939 197.626C314.262 196.895 313.197 196.672 312.284 197.071L311.587 197.375C310.881 197.683 310.363 198.316 310.223 199.073C309.8 201.374 309.472 206.4 313.625 209.785L318.278 211.697L322.605 208.353Z" fill="#FAB27B"/>
<path d="M318.279 211.696L324.458 220.992L328.792 216.412L322.605 208.354L318.279 211.696Z" fill="#FAB27B"/>
<path d="M355.684 189.581C355.365 188.947 350.397 190.798 344.587 193.717C338.777 196.636 334.325 199.516 334.644 200.15C334.963 200.784 339.931 198.933 345.741 196.014C351.551 193.095 356.003 190.215 355.684 189.581Z" fill="#263238"/>
<path d="M348.259 191.962C348.8 191.717 349.324 191.485 349.826 191.271L350.831 193.271C350.36 193.545 349.861 193.828 349.341 194.115L348.259 191.962Z" fill="#C05621"/>
<path opacity="0.5" d="M348.259 191.962C348.8 191.717 349.324 191.485 349.826 191.271L350.831 193.271C350.36 193.545 349.861 193.828 349.341 194.115L348.259 191.962Z" fill="white"/>
<path d="M353.904 189.389C354.18 188.071 348.938 190.404 348.636 190.552C348.271 190.731 348.024 190.15 348.388 189.971C348.757 189.79 355.099 186.751 354.531 189.467C354.448 189.863 353.821 189.788 353.904 189.389Z" fill="#C05621"/>
<g opacity="0.2">
<path d="M353.904 189.389C354.18 188.071 348.938 190.404 348.636 190.552C348.271 190.731 348.024 190.15 348.388 189.971C348.757 189.79 355.099 186.751 354.531 189.467C354.448 189.863 353.821 189.788 353.904 189.389Z" fill="black"/>
</g>
<path d="M354.18 210.533L349.057 201.833C349.057 201.833 349.288 197.988 346.619 193.397C346.432 193.076 344.697 191.675 344.697 191.675C342.688 192.693 341.31 193.703 340.699 194.171C338.842 195.594 338.347 196.631 340.623 200.097C342.517 202.981 344.755 204.588 344.755 204.588L349.593 214.452L354.18 210.533Z" fill="#FAB27B"/>
<path d="M355.33 209.484L353.11 205.962C353.11 205.962 349.024 206.557 346.334 211.209L348.21 215.271L355.33 209.484Z" fill="#C05621"/>
<path d="M381.031 190.049C377.156 190.313 373.785 189.631 367.172 210.477C365.941 214.356 362.774 218.218 362.774 218.218L355.493 208.273C355.493 208.273 350.718 208.553 347.421 214.381C347.421 214.381 353.035 233.212 363.578 231.849C374.121 230.485 379.998 218.386 382.324 211.165C384.651 203.943 389.605 189.465 381.031 190.049Z" fill="#263238"/>
<path d="M362.241 180.544L361.521 186.983L372.353 187.035L372.588 178.889L362.241 180.544Z" fill="#FAB27B"/>
<path opacity="0.2" d="M361.979 183.654C364.708 182.931 366.53 179.709 366.53 179.709L364.23 180.157L362.241 180.544L361.979 183.654Z" fill="black"/>
<path d="M359.281 162.432C359.075 162.943 359.179 163.463 359.522 163.596C359.865 163.728 360.342 163.408 360.528 162.906C360.714 162.404 360.63 161.875 360.284 161.747C359.937 161.619 359.491 161.924 359.281 162.432Z" fill="#263238"/>
<path d="M360.619 163.8L356.472 166.815C356.472 166.815 357.445 168.29 359.597 168.33L360.619 163.8Z" fill="#ED893E"/>
<path d="M361.267 159.336C361.365 159.346 361.451 159.402 361.498 159.487C361.817 160.141 362.439 160.598 363.17 160.715C363.33 160.729 363.446 160.866 363.432 161.024C363.413 161.182 363.269 161.299 363.108 161.288C362.179 161.159 361.381 160.589 360.974 159.763C360.899 159.623 360.956 159.447 361.1 159.371L361.101 159.37C361.152 159.344 361.21 159.333 361.267 159.336Z" fill="#263238"/>
<path d="M379.991 168.363C377.561 175.272 376.684 178.254 372.024 180.882C365.423 183.059 356.829 180.415 357.096 172.931C357.333 166.197 361.258 156.054 369.123 155.117C374.729 154.451 379.827 158.343 380.51 163.81C380.701 165.346 380.524 166.905 379.991 168.363Z" fill="#FAB27B"/>
<path d="M383.423 174.015C381.625 175.484 379.982 177.119 378.39 178.81C377.422 179.838 376.267 180.69 374.991 181.294C372.439 182.503 369.412 182.475 366.718 181.629C366.718 181.629 359.514 175.262 364.322 163.433C362.482 162.125 361.356 159.87 361.417 157.613C361.478 155.356 362.723 153.165 364.631 151.958C366.904 150.52 370.419 151.43 372.516 153.114C375.342 152.438 378.344 153.475 380.471 155.456C382.597 157.437 383.927 160.128 384.895 162.868C385.722 165.21 386.323 167.735 385.819 170.167C385.518 171.616 384.621 173.036 383.423 174.015Z" fill="#263238"/>
<path d="M365.009 165.962C363.633 166.615 362.581 167.776 362.085 169.188C361.442 171.066 363.142 172.12 365.01 171.696C366.703 171.313 369.058 169.87 368.89 167.934C368.722 165.997 366.7 165.182 365.009 165.962Z" fill="#FAB27B"/>
<path d="M374.734 182.759C372.332 181.719 368.003 181.618 361.739 182.592C361.044 182.7 360.501 183.371 360.256 184.031C360.011 184.691 360.354 185.597 361.052 185.686C360.997 186.604 360.77 187.603 360.716 188.522C362.48 188.338 364.424 188.73 366.195 188.82C369.024 188.963 371.824 189.454 374.614 189.945C374.442 188.619 374.034 187.212 374.342 185.912C374.988 186.03 375.632 185.409 375.802 184.775C375.971 184.139 375.336 183.02 374.734 182.759Z" fill="#C05621"/>
<path d="M374.734 182.759C372.332 181.719 368.003 181.618 361.739 182.592C361.044 182.7 360.501 183.371 360.256 184.031C360.011 184.691 360.354 185.597 361.052 185.686C360.997 186.604 360.77 187.603 360.716 188.522C362.48 188.338 364.424 188.73 366.195 188.82C369.024 188.963 371.824 189.454 374.614 189.945C374.442 188.619 374.034 187.212 374.342 185.912C374.988 186.03 375.632 185.409 375.802 184.775C375.971 184.139 375.336 183.02 374.734 182.759Z" fill="#C05621"/>
<path d="M345.165 251.362C345.165 251.362 342.938 221.655 343.077 200.226C343.18 184.419 354.521 187.261 369.122 187.335C380.7 187.394 384.644 188.387 386.222 194.701C387.801 201.015 380.005 251.534 380.005 251.534L345.165 251.362Z" fill="#C05621"/>
<path opacity="0.5" d="M345.165 251.362C345.165 251.362 342.938 221.655 343.077 200.226C343.18 184.419 354.521 187.261 369.122 187.335C380.7 187.394 384.644 188.387 386.222 194.701C387.801 201.015 380.005 251.534 380.005 251.534L345.165 251.362Z" fill="black"/>
<path d="M323.759 209.426C322.938 209.465 321.972 209.716 321.083 210.46C320.252 211.156 318.851 212.489 318.33 214.15C317.365 212.534 316.039 211.164 314.457 210.144L314.371 210.089C314.882 203.064 320.638 203.601 320.638 203.601L320.783 203.958C321.586 205.881 322.581 207.716 323.759 209.426Z" fill="#C05621"/>
<path opacity="0.2" d="M323.759 209.426C322.938 209.465 321.972 209.716 321.083 210.46C320.252 211.156 318.851 212.489 318.33 214.15C317.365 212.534 316.039 211.164 314.457 210.144L314.371 210.089C314.882 203.064 320.638 203.601 320.638 203.601L320.783 203.958C321.586 205.881 322.581 207.716 323.759 209.426Z" fill="black"/>
<path d="M339.101 234.39C328.474 234.158 318.282 216.585 318.282 216.585C318.031 215.725 318.089 214.904 318.33 214.15C318.852 212.488 320.253 211.155 321.083 210.46C321.972 209.716 322.938 209.465 323.759 209.426C324.87 209.368 325.701 209.697 325.701 209.697C325.701 209.697 333.536 219.367 335.449 218.498C337.343 217.629 338.095 214.423 338.792 210.412C342.516 188.988 346.613 188.344 350.205 188.249C357.661 188.054 348.51 234.593 339.101 234.39Z" fill="#C05621"/>
<g opacity="0.1">
<path d="M339.101 234.39C328.474 234.158 318.282 216.585 318.282 216.585C318.031 215.725 318.089 214.904 318.33 214.15C318.852 212.488 320.253 211.155 321.083 210.46C321.972 209.716 322.938 209.465 323.759 209.426C324.87 209.368 325.701 209.697 325.701 209.697C325.701 209.697 333.536 219.367 335.449 218.498C337.343 217.629 338.095 214.423 338.792 210.412C342.516 188.988 346.613 188.344 350.205 188.249C357.661 188.054 348.51 234.593 339.101 234.39Z" fill="white"/>
</g>
<path d="M380.004 251.534C380.004 251.534 380.913 260.577 380.785 263.758C380.106 280.631 364.127 286.585 351.388 284.246L306.125 279.341C304.294 285.472 282.969 319.228 282.969 319.228L271.758 312.791C271.758 312.791 283.381 284.923 290.884 265.532C295.168 254.461 329.173 254.127 342.013 256.405C345.916 257.457 345.163 251.362 345.163 251.362L380.004 251.534Z" fill="#263238"/>
<path d="M280.108 319.853L275.827 326.99L267.84 323.017L271.994 314.891L280.108 319.853Z" fill="#FAB27B"/>
<path d="M263.592 321.554C262.538 321.072 261.537 320.381 261.395 319.768C261.335 319.42 261.502 319.073 261.81 318.902C262.058 318.734 262.362 318.669 262.657 318.721C264.25 318.979 266.434 322.02 266.531 322.155C266.585 322.231 266.586 322.332 266.532 322.409C266.478 322.484 266.385 322.519 266.294 322.499C265.368 322.263 264.464 321.947 263.592 321.554ZM262.998 319.288C262.869 319.226 262.732 319.184 262.591 319.162C262.41 319.114 262.218 319.151 262.069 319.262C261.806 319.444 261.803 319.589 261.829 319.683C261.97 320.415 264.101 321.406 265.768 321.932C265.02 320.884 264.08 319.987 262.998 319.288Z" fill="#C05621"/>
<path d="M266.265 322.482C266.233 322.477 266.205 322.461 266.185 322.436C265.377 321.523 264.181 318.754 264.798 317.883C264.924 317.662 265.224 317.462 265.803 317.659C266.226 317.801 266.573 318.109 266.764 318.513C267.438 319.894 266.618 322.284 266.581 322.395C266.553 322.47 266.487 322.524 266.408 322.535C266.354 322.536 266.303 322.517 266.265 322.482ZM265.762 318.101L265.652 318.038C265.277 317.904 265.187 318.038 265.148 318.083C264.833 318.634 265.511 320.682 266.277 321.784C266.616 320.777 266.638 319.69 266.34 318.671C266.223 318.418 266.017 318.215 265.762 318.101Z" fill="#C05621"/>
<path d="M267.703 321.708L276.955 325.94C277.304 326.099 277.495 326.479 277.416 326.854L275.646 335.146C275.494 335.883 274.774 336.357 274.038 336.205C273.943 336.185 273.851 336.156 273.763 336.117C270.454 334.534 267.572 332.994 263.417 331.101C258.516 328.861 259.491 330.016 253.693 327.463C250.201 325.921 251.37 321.685 252.931 322.164C260.055 324.397 261.685 322.683 265.386 321.461C266.162 321.257 266.987 321.345 267.703 321.708Z" fill="#263238"/>
<path opacity="0.2" d="M277.933 323.479L280.108 319.853L271.994 314.891L269.987 318.818L277.933 323.479Z" fill="black"/>
<path d="M284.747 319.814L270.847 311.142C270.847 311.142 268.61 312.376 269.103 314.784L282.453 323.312C282.453 323.312 284.249 323.231 284.747 319.814Z" fill="#C05621"/>
<path d="M363.35 286.86H386.397C395.282 286.86 402.675 280.03 403.377 271.172L406.656 229.769C407.188 223.058 401.885 217.319 395.153 217.319H382.422C367.562 217.319 354.466 227.075 350.213 241.313L341.382 270.876C339.902 275.832 335.343 279.228 330.171 279.228H314.062C309.847 279.228 306.429 282.645 306.429 286.861H349.772H363.35V286.86Z" fill="#C05621"/>
<path d="M352.982 286.86C353.613 296.711 355.313 332.595 352.774 340.493C350.54 347.443 340.326 349.099 334.293 352.785C333.279 353.405 333.626 355.369 334.748 355.369H381.756C382.878 355.369 383.225 353.405 382.211 352.785C376.178 349.1 365.964 347.444 363.73 340.493C361.191 332.595 362.89 296.71 363.522 286.86H352.982Z" fill="#C05621"/>
<path opacity="0.2" d="M353.415 294.306H363.087C363.246 291.288 363.402 288.71 363.521 286.86H352.982C353.1 288.71 353.256 291.288 353.415 294.306Z" fill="black"/>
<path opacity="0.7" d="M363.35 286.86H386.397C395.282 286.86 402.675 280.03 403.377 271.172L406.656 229.769C407.188 223.058 401.885 217.319 395.153 217.319H382.422C367.562 217.319 354.466 227.075 350.213 241.313L341.382 270.876C339.902 275.832 335.343 279.228 330.171 279.228H314.062C309.847 279.228 306.429 282.645 306.429 286.861H349.772H363.35V286.86Z" fill="white"/>
</svg>
